<svg xmlns="http://www.w3.org/2000/svg" viewBox="0 0 328.31 54.82" width="220px"><defs><style>.cls-1{fill:#007cc2;}.cls-2{fill:#3f4446;}.cls-3{fill:#0f7ec2;}.cls-4{fill:#f6c102;}.cls-5{fill:#bbced9;}.cls-6{fill:#c7d6e0;}.cls-7{fill:#bacdd8;}.cls-8{fill:#b1d6ec;}.cls-9{fill:#b8c7cf;}.cls-10{fill:#4ea0d3;}.cls-11{fill:#56a3d4;}.cls-12{fill:#047bc0;}.cls-13{fill:#057bc0;}.cls-14{fill:#8d9845;}.cls-15{fill:#8b9441;}.cls-16{fill:#248ac9;}.cls-17{fill:#333;}.cls-18{fill:#e66761;}</style></defs><title>logo4</title><g id="Слой_2" data-name="Слой 2"><g id="Слой_1-2" data-name="Слой 1"><path class="cls-1" d="M6.67,2c.27-.21.54-.6.81-.6,2.52,0,5,0,7.55,0H53.25V43.53l-1-.58-.75.66L50,42.86l-.79.51L48,42.8l-.77.72c-.5-.47-1-1.23-1.73.07l3,3.18-.94.53-1.25-.66-1.58.75.88-1.81-2.15-1.27.84,2.16-.79.79-.91-.66-1.34.7-.54-.94c.64-1.16,2.27-1.61,2.52-3.6l-1.58.59L40,42.9H39.4l-1.74.46c-.35-.33-.83-1-1.53.17l2.45,1.79-.43.44V47.3l-1.47-.71-.76.69-.81-.81.83-2.16-2.07,1.22.59,2-1.27-.93-1.34.7-.75-.59c.81-1.43,2.37-2,2.8-3.87l-1.67.48-1.64-.42H29.33l-1.47.72-.74-.71-1,1a27.83,27.83,0,0,1,2.16,2c.29.32.3.88.44,1.33l-1.65-.43-1.83.61.85-1.79c-.43-.46-.8-1.36-1.93-.54l.73,1.27-.85.84-.9-.66-1.34.7c.07-.38,0-.87.24-1.14.59-.72,1.3-1.34,2-2a1.72,1.72,0,0,0,.21-.43l-1-.94-.93.51-2.12-.37.95,1.61-.89.89-.82-.83.77-2-1.6.65L16,43c1.32,1.56,2.32,2.43,3.2,3.37l-.58,1-1.26-.68-1.26.68-.5-.88.8-2.09-2,1.17.48,1.8-1.12-.59-2.39.72A10.75,10.75,0,0,1,12.12,46c.68-.77,1.41-1.49,2.09-2.27.08-.09-.05-.38-.13-.87l-1.5.58c-.57-1.34-1.93.68-2.69-.46a7.58,7.58,0,0,0-1.49.63l-.74-.51-1,.47ZM20.18,32.27c-2-.08-2.9-2.17-4.72-1.85.06,2.17,2.44,2,3.08,3.36l-.67.76-4.15-2.36L13,33.58l5.53,3.05.19,1.6,1.49.76c3.14-5.25,6.07-10.73,10-16,.76,1.85,2.05,3.06,2.83,4.45,2.18,3.92,4.62,7.69,6.64,11.58l1.63-.84.1-1.48,4-2.62c.21.18.42.37.12.1l2.28-.63L45.53,32.5c-.81.53-2.1,1.39-3.43,2.19-.17.1-.54-.13-1.06-.27a10.35,10.35,0,0,1,1.15-1.51c.59-.52,1.35-.85,1.92-1.39.23-.22.15-.77.26-1.52L40,32.25c.44-2.42,2.7-2.35,3.75-3.57V27.22H42.23c-1,2.29-3.12,2.55-5,3.2-2.44-3.08-3.4-6.76-5.31-9.94-.28-.45.34-1.44.53-2.13,1.77,0,3.24,0,4.7,0a3.11,3.11,0,0,0,2.76-1.53c.43-.92,1.54-2.07.15-3.23-.2-.17,0-.8,0-1.08a11.9,11.9,0,0,0-6.87-4.8A3.29,3.29,0,0,0,30,8.34c-1.81-1.66-3.79-.57-5.36.12-1.8.78-3.21,2.45-4.7,3.65,0,.65.18,1.25,0,1.45-1.1,1-.45,2,0,3a3.28,3.28,0,0,0,2.88,1.78,42.5,42.5,0,0,0,4.37,0l1,1c-.21,2.79-2.56,4.7-3.29,7.37-.42,1.56-1.65,2.89-2.67,4.57-1-2.19-4-1.64-4.43-4.05H16.19v1.45c1.19.81,2.34,1.56,3.47,2.35C19.79,31.14,19.82,31.39,20.18,32.27Z" transform="translate(-5.91 -1.35)"/><path class="cls-2" d="M6.67,2V47.3l.82,1.23,1.23-.72.78.74.66-.62a1.53,1.53,0,0,1,.62,0,1.76,1.76,0,0,1,.47.4c.61-.15,1.36-.45,1.44-.32.63.94,1-.21,1.44-.11a5.27,5.27,0,0,1,1,.44l1-.46,1.26.68,1.26-.68.57.34c.91,0,1.5-.21,1.89,0s.67.25.69-.33l1.7.44a2.51,2.51,0,0,1,.92-.4c.32,0,.64.45,1,.44S26,48,26.4,48a.8.8,0,0,1,.53.3l1.77-.34.44.51c.62-1,1.3-.25,1.75-.06l1-.45,1,.58c.63-1.34,2,.56,2.73-.54,0-.07.75.32.74.31l1.84-.35c.37,1.38.74-.27,1.06,0a14.78,14.78,0,0,0,1.63.64c.09,0,.3-.39.45-.6.75.42,1.49,1.13,2.28.08.82,1.34,1.56-.18,2.31-.1l.72.49,1-.47,1,.59c.59-1.07,1.27-.45,1.94-.07.62-1,1.3-.33,1.77-.07l1-.45-.36,4L50.82,53c-3.94,0-8.13.07-12.32,0-3.27-.07-6.2.59-8.26,3.22-.37-.1-.64-.09-.74-.22-1.87-2.34-4.56-2.82-7.26-2.94-3.77-.16-7.54,0-11.32-.07a22.87,22.87,0,0,1-3.27-.48L6,49.17V29.52c0-8.6,0-17.19,0-25.78C6.07,3.16,5.44,2.2,6.67,2Z" transform="translate(-5.91 -1.35)"/><path class="cls-3" d="M53.25,47.3l-.88-.41-1.86.45a5.64,5.64,0,0,1,2.74-3.18Z" transform="translate(-5.91 -1.35)"/><path class="cls-4" d="M20.18,32.27c-.36-.88-.39-1.13-.52-1.23-1.13-.79-2.28-1.54-3.47-2.35V27.24h1.55c.44,2.41,3.41,1.86,4.43,4.05,1-1.68,2.25-3,2.67-4.57.73-2.67,3.08-4.58,3.29-7.37l-1-1a42.5,42.5,0,0,1-4.37,0,3.28,3.28,0,0,1-2.88-1.78c-.47-1-1.12-1.93,0-3,.21-.2,0-.8,0-1.45,1.49-1.2,2.9-2.87,4.7-3.65,1.57-.69,3.55-1.78,5.36-.12a3.29,3.29,0,0,1,3.21-.65A11.9,11.9,0,0,1,40,12.49c0,.28-.17.91,0,1.08,1.39,1.16.28,2.31-.15,3.23a3.11,3.11,0,0,1-2.76,1.53c-1.46.06-2.93,0-4.7,0-.19.69-.81,1.68-.53,2.13,1.91,3.18,2.87,6.86,5.31,9.94,1.88-.65,4-.91,5-3.2H43.7v1.46c-1.05,1.22-3.31,1.15-3.75,3.57L44.37,30c-.11.75,0,1.3-.26,1.52-.57.54-1.33.87-1.92,1.39A10.35,10.35,0,0,0,41,34.42c.52.14.89.37,1.06.27,1.33-.8,2.62-1.66,3.43-2.19l2.27,1.09-2.28.63c.3.27.09.08-.12-.1l-4,2.62c0,.49-.07,1-.1,1.48l-1.63.84c-2-3.89-4.46-7.66-6.64-11.58-.78-1.39-2.07-2.6-2.83-4.45-3.89,5.23-6.82,10.71-10,16l-1.49-.76-.19-1.6L13,33.58l.74-1.4,4.15,2.36.67-.76c-.64-1.34-3-1.19-3.08-3.36C17.28,30.1,18.21,32.19,20.18,32.27Zm15.39-15.1,2.56-1.48v-2.4c-.62-1.46-1.19-2.62-2.63-2.94-1.19-.28-2.24-1.48-3.62-.54,1.69,1.88-.17,3.27-.73,5.06l2,1.52Zm-7.15-2.11c-.31-2-1.83-3.55-.3-5.55-3,0-5,1.08-6.25,3.34v2.92l2.49,1.4,3-1Zm1-3.58v1.77h1V11.48Zm-.2,5.23.41.42,1-.19-.29-1.57Z" transform="translate(-5.91 -1.35)"/><path class="cls-5" d="M41.29,47.93V47.3l1.34-.7.91.66.79-.79-.84-2.16,2.15,1.27-.88,1.81,1.58-.75,1.25.66v.63l-1,.47-.72-.49c-.75-.08-1.49,1.44-2.31.1C42.78,49.06,42,48.35,41.29,47.93Z" transform="translate(-5.91 -1.35)"/><path class="cls-6" d="M28.7,47.3v.63l-1.77.34a.8.8,0,0,0-.53-.3c-.36,0-.7.44-1,.44s-.63-.44-1-.44a2.51,2.51,0,0,0-.92.4l-1.7-.44V47.3l1.34-.7.9.66.85-.84-.73-1.27c1.13-.82,1.5.08,1.93.54l-.85,1.79,1.83-.61Z" transform="translate(-5.91 -1.35)"/><path class="cls-7" d="M38.15,47.3v.63l-1.84.35s-.7-.38-.74-.31c-.75,1.1-2.1-.8-2.73.54l-1-.58V47.3l1.34-.7,1.27.93-.59-2,2.07-1.22-.83,2.16.81.81.76-.69Z" transform="translate(-5.91 -1.35)"/><path class="cls-8" d="M16.11,47.3H14.85l-.48-1.8,2-1.17-.8,2.09Z" transform="translate(-5.91 -1.35)"/><path class="cls-9" d="M18.63,47.3v.63l-1.26.68-1.26-.68V47.3l1.26-.68Z" transform="translate(-5.91 -1.35)"/><path class="cls-10" d="M30.59,42.9v2.55l-1.47-.2.74-1.43-.53-.92Z" transform="translate(-5.91 -1.35)"/><path class="cls-11" d="M40,42.9l.5,1.81-1.92,1.06.79-2.87Z" transform="translate(-5.91 -1.35)"/><path class="cls-1" d="M6.67,44.16c.55.44,1.11.87,1.64,1.34.37.32.7.69,1.07,1.08-.7,1.21-1.21.65-1.72.14l-1,.58Z" transform="translate(-5.91 -1.35)"/><path class="cls-1" d="M48.85,45.25v-.91l1.1-.23.23,1.14Z" transform="translate(-5.91 -1.35)"/><path class="cls-12" d="M35.57,17.17l-2.44-.78-2-1.52c.56-1.79,2.42-3.18.73-5.06,1.38-.94,2.43.26,3.62.54,1.44.32,2,1.48,2.63,2.94v2.4Z" transform="translate(-5.91 -1.35)"/><path class="cls-13" d="M28.42,15.06l-1,1.14-3,1-2.49-1.4V12.85c1.24-2.26,3.28-3.32,6.25-3.34C26.59,11.51,28.11,13,28.42,15.06Z" transform="translate(-5.91 -1.35)"/><path class="cls-14" d="M29.44,11.48h1v1.77h-1Z" transform="translate(-5.91 -1.35)"/><path class="cls-15" d="M29.24,16.71l1.1-1.34.29,1.57-1,.19Z" transform="translate(-5.91 -1.35)"/><path class="cls-16" d="M10.91,45.42H10l-.23-1.11,1.14-.23Z" transform="translate(-5.91 -1.35)"/><path class="cls-17" d="M90.37,41.8V29.54H88.16a3.68,3.68,0,0,0-1.77.43,4,4,0,0,0-1.5,1.67L80.6,39.43a4.81,4.81,0,0,1-1.74,1.73,5.08,5.08,0,0,1-2.63.64H70.86l6.26-10.44a8.5,8.5,0,0,1,1.52-1.86,7,7,0,0,1,2-1.24A10.42,10.42,0,0,1,77.85,27a7.81,7.81,0,0,1-1.94-1.8,7.3,7.3,0,0,1-1.14-2.24,9,9,0,0,1-.36-2.56,8.54,8.54,0,0,1,.78-3.65,8.43,8.43,0,0,1,2.28-2.91,10.87,10.87,0,0,1,3.66-1.92A15.82,15.82,0,0,1,86,11.2H97.46V41.8Zm-9-21.46a5.83,5.83,0,0,0,.19,1.55,2.7,2.7,0,0,0,.7,1.23,3.48,3.48,0,0,0,1.41.8A7.85,7.85,0,0,0,86,24.2h4.33V16.54H86a7.15,7.15,0,0,0-2.32.31,3.66,3.66,0,0,0-1.41.85,3,3,0,0,0-.7,1.22A5.18,5.18,0,0,0,81.42,20.34Z" transform="translate(-5.91 -1.35)"/><path class="cls-17" d="M115.36,32.18c.21-.59.43-1.16.67-1.73a14.7,14.7,0,0,1,.78-1.59l3.69-7.45a2.33,2.33,0,0,1,1.13-1.13A3.31,3.31,0,0,1,123,20h5.46V41.8h-5.88V31.49c0-.53,0-1.13.07-1.8a18.59,18.59,0,0,1,.24-1.9L117.54,38.1a1.94,1.94,0,0,1-1.83,1.08H115a2,2,0,0,1-1.83-1.08l-5.35-10.37c.11.62.2,1.26.26,1.94s.1,1.29.1,1.82V41.8h-5.88V20h5.46a3.36,3.36,0,0,1,1.33.29,2.37,2.37,0,0,1,1.12,1.12l3.68,7.45A29.87,29.87,0,0,1,115.36,32.18Z" transform="translate(-5.91 -1.35)"/><path class="cls-17" d="M147.42,41.8a3,3,0,0,1-1.39-.25,1.92,1.92,0,0,1-.79-1l-.46-1.2c-.55.46-1.07.87-1.58,1.22a9.34,9.34,0,0,1-1.56.89,7.68,7.68,0,0,1-1.72.55,10.57,10.57,0,0,1-2,.18,8.82,8.82,0,0,1-2.71-.39,5.64,5.64,0,0,1-2.07-1.15,5,5,0,0,1-1.31-1.88,6.73,6.73,0,0,1-.46-2.59,5.43,5.43,0,0,1,.58-2.37,6,6,0,0,1,2-2.22,13.18,13.18,0,0,1,3.91-1.67,25.81,25.81,0,0,1,6.19-.75v-.93a4,4,0,0,0-.78-2.76,2.91,2.91,0,0,0-2.24-.85,5.88,5.88,0,0,0-1.89.25,8.44,8.44,0,0,0-1.31.57c-.39.21-.76.4-1.13.57a3.21,3.21,0,0,1-1.3.25,1.81,1.81,0,0,1-1.13-.34,2.89,2.89,0,0,1-.76-.8l-1.18-2a13.42,13.42,0,0,1,4.38-2.6,15.56,15.56,0,0,1,5.16-.85,9.6,9.6,0,0,1,3.56.64A7.78,7.78,0,0,1,148.13,22a8,8,0,0,1,1.69,2.72,9.82,9.82,0,0,1,.59,3.44V41.8Zm-7.47-4a5.2,5.2,0,0,0,2.2-.44A6.56,6.56,0,0,0,144.06,36v-3a22,22,0,0,0-3.21.33,8,8,0,0,0-2,.63,2.4,2.4,0,0,0-1,.87,2,2,0,0,0-.29,1,1.83,1.83,0,0,0,.61,1.56A3,3,0,0,0,140,37.83Z" transform="translate(-5.91 -1.35)"/><path class="cls-17" d="M175.77,20V41.8h-6.51v-17h-4a56.18,56.18,0,0,1-.81,6.7,27,27,0,0,1-1.28,4.72,11.44,11.44,0,0,1-1.67,3.08,7.38,7.38,0,0,1-2,1.79,6.55,6.55,0,0,1-2.16.82,13.33,13.33,0,0,1-2.28.2,5.79,5.79,0,0,1-2-.25q-.6-.24-.6-.66v-3.9h1.37a4.89,4.89,0,0,0,1.32-.18,2.92,2.92,0,0,0,1.26-.78,6.24,6.24,0,0,0,1.16-1.74,15.85,15.85,0,0,0,1-3.07,45.27,45.27,0,0,0,.8-4.74c.23-1.89.42-4.15.56-6.8Z" transform="translate(-5.91 -1.35)"/><path class="cls-18" d="M215.1,26.49A16.57,16.57,0,0,1,214,32.67a14.6,14.6,0,0,1-8.23,8.27,18.23,18.23,0,0,1-13,0,14.61,14.61,0,0,1-8.26-8.27,16.37,16.37,0,0,1-1.15-6.18,16.28,16.28,0,0,1,1.15-6.17,14.63,14.63,0,0,1,3.23-5,15,15,0,0,1,5-3.3,17.27,17.27,0,0,1,6.51-1.19,17,17,0,0,1,6.5,1.2,15.15,15.15,0,0,1,5,3.31,14.76,14.76,0,0,1,3.22,5A16.41,16.41,0,0,1,215.1,26.49Zm-7.27,0a13.26,13.26,0,0,0-.59-4.08,8.57,8.57,0,0,0-1.69-3.08,7.23,7.23,0,0,0-2.7-1.93,9.22,9.22,0,0,0-3.63-.67,9.45,9.45,0,0,0-3.67.67,7.23,7.23,0,0,0-2.7,1.93,8.74,8.74,0,0,0-1.7,3.08,13.27,13.27,0,0,0-.58,4.08,13.38,13.38,0,0,0,.58,4.11,8.69,8.69,0,0,0,1.7,3.07,7.09,7.09,0,0,0,2.7,1.92,9.45,9.45,0,0,0,3.67.67,9.22,9.22,0,0,0,3.63-.67,7.09,7.09,0,0,0,2.7-1.92,8.52,8.52,0,0,0,1.69-3.07A13.37,13.37,0,0,0,207.83,26.49Z" transform="translate(-5.91 -1.35)"/><path class="cls-18" d="M237.94,20V41.8h-6.51V32.6h-6.72v9.2H218.2V20h6.51v7.92h6.72V20Z" transform="translate(-5.91 -1.35)"/><path class="cls-18" d="M263.56,20V41.8h-6.51v-17h-4a58.55,58.55,0,0,1-.8,6.7A27.85,27.85,0,0,1,251,36.25a11.44,11.44,0,0,1-1.67,3.08,7.38,7.38,0,0,1-2,1.79,6.55,6.55,0,0,1-2.16.82,13.33,13.33,0,0,1-2.28.2,5.79,5.79,0,0,1-2-.25q-.6-.24-.6-.66v-3.9h1.37a4.89,4.89,0,0,0,1.32-.18,2.86,2.86,0,0,0,1.26-.78,6.24,6.24,0,0,0,1.16-1.74,15.85,15.85,0,0,0,1-3.07,45.27,45.27,0,0,0,.8-4.74c.23-1.89.42-4.15.56-6.8Z" transform="translate(-5.91 -1.35)"/><path class="cls-18" d="M282.57,41.8a3,3,0,0,1-1.4-.25,2,2,0,0,1-.79-1l-.46-1.2c-.55.46-1.07.87-1.57,1.22a9.85,9.85,0,0,1-1.57.89,7.52,7.52,0,0,1-1.72.55,10.57,10.57,0,0,1-2,.18,8.92,8.92,0,0,1-2.71-.39,5.64,5.64,0,0,1-2.07-1.15,5.09,5.09,0,0,1-1.31-1.88,6.73,6.73,0,0,1-.46-2.59,5.45,5.45,0,0,1,.59-2.37,5.88,5.88,0,0,1,2-2.22,13,13,0,0,1,3.9-1.67,25.83,25.83,0,0,1,6.2-.75v-.93a4,4,0,0,0-.79-2.76,2.9,2.9,0,0,0-2.24-.85,5.88,5.88,0,0,0-1.89.25,8.88,8.88,0,0,0-1.31.57c-.39.21-.76.4-1.12.57a3.26,3.26,0,0,1-1.31.25,1.85,1.85,0,0,1-1.13-.34,2.72,2.72,0,0,1-.75-.8l-1.18-2a13.22,13.22,0,0,1,4.38-2.6A15.5,15.5,0,0,1,277,19.6a9.57,9.57,0,0,1,3.56.64A7.69,7.69,0,0,1,283.27,22,7.82,7.82,0,0,1,285,24.75a9.82,9.82,0,0,1,.59,3.44V41.8Zm-7.48-4a5.25,5.25,0,0,0,2.21-.44A6.69,6.69,0,0,0,279.21,36v-3a22,22,0,0,0-3.22.33,7.92,7.92,0,0,0-2,.63,2.44,2.44,0,0,0-1,.87,2,2,0,0,0-.28,1,1.81,1.81,0,0,0,.61,1.56A3,3,0,0,0,275.09,37.83Z" transform="translate(-5.91 -1.35)"/><path class="cls-18" d="M289.71,41.82V20h6.51V31.13a10.37,10.37,0,0,1-.07,1.2c0,.43-.1.87-.16,1.32a11,11,0,0,1,1.07-1.93,5.42,5.42,0,0,1,.33-.5l.79-1.19,1.07-1.63,1.23-1.85c1-1.47,2.08-3.12,3.3-5a5,5,0,0,1,.43-.56,3.12,3.12,0,0,1,.53-.5,2.84,2.84,0,0,1,.63-.36,1.92,1.92,0,0,1,.72-.14h4V41.8h-6.51V30.71q0-.53.06-1.17c0-.44.1-.88.17-1.33-.17.38-.35.73-.53,1.05a8.07,8.07,0,0,1-.54.86,5.89,5.89,0,0,0-.35.51l-.78,1.18c-.31.49-.67,1-1.07,1.63l-1.23,1.85q-1.47,2.2-3.29,5c-.13.18-.27.36-.43.55a3.71,3.71,0,0,1-.54.51,3.25,3.25,0,0,1-.63.35,1.7,1.7,0,0,1-.71.14Zm10.52-27.49a3.87,3.87,0,0,0,1.17-.15,1.36,1.36,0,0,0,.73-.5,2.22,2.22,0,0,0,.35-.95,9.22,9.22,0,0,0,.1-1.53h3.86a1.07,1.07,0,0,1,.58.16,1.52,1.52,0,0,1,.4.4,2.13,2.13,0,0,1,.24.55,2.16,2.16,0,0,1,.09.62,3.61,3.61,0,0,1-.56,2,4.76,4.76,0,0,1-1.56,1.49,8,8,0,0,1-2.37,1,14.55,14.55,0,0,1-6.07,0,8.1,8.1,0,0,1-2.37-1,4.72,4.72,0,0,1-1.55-1.49,3.52,3.52,0,0,1-.56-2,2.57,2.57,0,0,1,.08-.62,2.13,2.13,0,0,1,.24-.55,1.52,1.52,0,0,1,.4-.4,1.09,1.09,0,0,1,.58-.16h3.86a10.45,10.45,0,0,0,.1,1.53,2.1,2.1,0,0,0,.36.95,1.31,1.31,0,0,0,.71.5A3.88,3.88,0,0,0,300.23,14.33Z" transform="translate(-5.91 -1.35)"/><path class="cls-18" d="M334.23,20V41.8h-6.51V32.6H321v9.2h-6.51V20H321v7.92h6.72V20Z" transform="translate(-5.91 -1.35)"/></g></g></svg>