<svg xmlns="http://www.w3.org/2000/svg" xmlns:xlink="http://www.w3.org/1999/xlink" viewBox="0 0 684.2 429.52"><defs><style>.cls-1,.cls-44,.cls-49,.cls-84{fill:none;}.cls-2{isolation:isolate;}.cls-3{fill:#006673;}.cls-4{fill:#00a2ba;}.cls-5{fill:#008591;}.cls-6{fill:#e2e2e8;}.cls-7{fill:#145e85;}.cls-8{fill:#104765;}.cls-9{fill:url(#Degradado_sin_nombre_5);}.cls-10{fill:#c4e7fb;}.cls-11{clip-path:url(#clip-path);}.cls-12{fill:#c4c5c5;}.cls-13{fill:#e7e7e7;}.cls-14{fill:#cacaca;}.cls-14,.cls-29{mix-blend-mode:multiply;}.cls-15{fill:#4c010a;}.cls-16{fill:#750f08;}.cls-17{fill:#001322;}.cls-18{fill:#e0e0e0;}.cls-19,.cls-28{fill:#fff;}.cls-20{fill:#01040d;}.cls-21{fill:#004363;}.cls-22{fill:#00ace9;}.cls-23{clip-path:url(#clip-path-2);}.cls-24{fill:#b1b2b2;}.cls-25{fill:url(#Degradado_sin_nombre_4);}.cls-26{fill:url(#Degradado_sin_nombre_2);}.cls-27{fill:#8b8c8c;}.cls-28{opacity:0.17;mix-blend-mode:lighten;}.cls-29{fill:#bbbaba;}.cls-30{fill:#deb196;}.cls-31{fill:#e8c0a8;}.cls-32{fill:#3d150c;}.cls-33{fill:#2d2a25;}.cls-34{fill:#efeded;}.cls-35{fill:#eae7e4;}.cls-36{fill:#fbcc32;}.cls-37{fill:#3d3f44;}.cls-38{fill:#303135;}.cls-39{fill:#cf9f82;}.cls-40{fill:#ffdf31;}.cls-41{fill:#a56052;}.cls-42{fill:#54150c;}.cls-43{fill:url(#linear-gradient);}.cls-44,.cls-84{stroke:#4b2b19;}.cls-44,.cls-49,.cls-84{stroke-miterlimit:10;}.cls-44{stroke-width:0.91px;}.cls-45{fill:url(#linear-gradient-2);}.cls-46{fill:#931542;}.cls-47{fill:#f9c285;}.cls-48{fill:#9cd8f7;}.cls-49{stroke:#008591;stroke-width:1.07px;}.cls-50{fill:url(#Degradado_sin_nombre_6);}.cls-51{fill:#d7ecec;}.cls-52{fill:#c55f02;}.cls-53{fill:#c39e50;}.cls-54{fill:#80a92a;}.cls-55{fill:#d79f80;}.cls-56{fill:#f7a600;}.cls-57,.cls-59{opacity:0.59;}.cls-57{fill:url(#linear-gradient-3);}.cls-58{fill:#bf6600;}.cls-59{fill:url(#linear-gradient-4);}.cls-60{fill:#ae2e34;}.cls-61{fill:#4b2b19;}.cls-62{fill:#edc650;}.cls-63{fill:#fbca8e;}.cls-64{fill:#fac37d;}.cls-65{fill:#85532d;}.cls-66{fill:#b70443;}.cls-67{fill:#5d041c;}.cls-68{fill:#d7004f;}.cls-69{fill:#f0ae66;}.cls-70{fill:#eda159;}.cls-71{fill:#a36538;}.cls-72{fill:url(#linear-gradient-5);}.cls-73{fill:#643619;}.cls-74{fill:#994d1d;}.cls-75{fill:#009ef0;}.cls-76{fill:#00244c;}.cls-77{fill:#004792;}.cls-78{fill:#00a2ee;}.cls-79{fill:#007ac3;}.cls-80{fill:#00d2ff;}.cls-81{fill:#eeab67;}.cls-82{fill:#b06523;}.cls-83{fill:url(#Degradado_sin_nombre_3);}.cls-84{stroke-width:0.52px;}.cls-85{fill:url(#Degradado_sin_nombre_3-2);}.cls-86{fill:#00a6ff;}</style><linearGradient id="Degradado_sin_nombre_5" x1="516.81" y1="221.81" x2="624.98" y2="92.25" gradientUnits="userSpaceOnUse"><stop offset="0" stop-color="#3abff0"/><stop offset="1" stop-color="#3ae9ff"/></linearGradient><clipPath id="clip-path"><path class="cls-1" d="M496.25,56.71l102-10.08c7,0,12.6,6.48,12.6,14.47V285.46c-7.92-.49-120.27-7.39-127.25-7.91V239s-18.7,8.63-18.16-18.08c.41-20.66-2-37.38-4.5-44.62-18.61-2.32-31.28,17.93-38.66,12.62C401.62,174,416.18,120,425,110.53c14.21-15.24,18.26,12.08,33.56,20.94s25.08,7.79,25.08,7.79V70.09C483.64,62.7,489.29,56.71,496.25,56.71Z"/></clipPath><clipPath id="clip-path-2"><path class="cls-1" d="M435.74,149.86c-2.18,17.52-6.9,28.54-9.52,30.89-6.56,1.24-8.31-15.32-6.14-32.83s7.24-31.74,14.06-30.56C435.91,120.52,437.92,132.35,435.74,149.86Z"/></clipPath><linearGradient id="Degradado_sin_nombre_4" x1="-8997.71" y1="1730.28" x2="-8996.03" y2="1735.67" gradientTransform="matrix(1, 0, 0, 1, 9428.69, -1553.61)" gradientUnits="userSpaceOnUse"><stop offset="0" stop-color="#fff"/><stop offset="1" stop-color="#ededed"/></linearGradient><linearGradient id="Degradado_sin_nombre_2" x1="-8994.75" y1="1732.67" x2="-8997.27" y2="1733.9" gradientTransform="matrix(1, 0, 0, 1, 9428.69, -1553.61)" gradientUnits="userSpaceOnUse"><stop offset="0" stop-color="#c7c8c8"/><stop offset="1" stop-color="#b5b6b6"/></linearGradient><linearGradient id="linear-gradient" x1="178.27" y1="974.66" x2="175.05" y2="982.12" gradientTransform="matrix(0.99, -0.13, 0.13, 0.99, 230.22, -806.16)" gradientUnits="userSpaceOnUse"><stop offset="0" stop-color="#c9926a"/><stop offset="1" stop-color="#c9926a" stop-opacity="0"/></linearGradient><linearGradient id="linear-gradient-2" x1="161.13" y1="972.78" x2="162.34" y2="980.49" xlink:href="#linear-gradient"/><linearGradient id="Degradado_sin_nombre_6" x1="400.33" y1="114.02" x2="43.51" y2="122.52" gradientUnits="userSpaceOnUse"><stop offset="0" stop-color="#c8f0ff" stop-opacity="0.3"/><stop offset="0.34" stop-color="#c8f0ff"/><stop offset="1" stop-color="#c8f0ff" stop-opacity="0"/></linearGradient><linearGradient id="linear-gradient-3" x1="1048.2" y1="2748.65" x2="1045.95" y2="2753.88" gradientTransform="matrix(-0.95, -0.32, -0.32, 0.95, 1988.35, -2144.5)" xlink:href="#linear-gradient"/><linearGradient id="linear-gradient-4" x1="1037.68" y1="2746.06" x2="1038.69" y2="2752.45" gradientTransform="matrix(-0.95, -0.32, -0.32, 0.95, 1988.35, -2144.5)" xlink:href="#linear-gradient"/><linearGradient id="linear-gradient-5" x1="613.91" y1="2738.41" x2="615.23" y2="2742.88" gradientTransform="translate(472.75 -2682.38) rotate(17.25)" gradientUnits="userSpaceOnUse"><stop offset="0" stop-color="#da9c68"/><stop offset="1" stop-color="#da9c68" stop-opacity="0"/></linearGradient><linearGradient id="Degradado_sin_nombre_3" x1="-11822.14" y1="-2199.38" x2="-11823.99" y2="-2195.1" gradientTransform="matrix(-0.98, -0.18, -0.18, 0.98, -11696.3, 180.67)" gradientUnits="userSpaceOnUse"><stop offset="0" stop-color="#c97a51"/><stop offset="1" stop-color="#c97a51" stop-opacity="0"/></linearGradient><linearGradient id="Degradado_sin_nombre_3-2" x1="-12158.93" y1="-1108.15" x2="-12158.23" y2="-1103.72" gradientTransform="matrix(-1, 0.01, 0.01, 1, -11814.64, 1292.37)" xlink:href="#Degradado_sin_nombre_3"/></defs><title>request</title><g class="cls-2"><g id="Слой_2" data-name="Слой 2"><g id="OBJECTS"><path class="cls-3" d="M575.36,231.05h0a104.1,104.1,0,0,0,13.68-.11c4-.26,8-.66,12.05-1a27.9,27.9,0,0,1-.47-3.39c0-1-.43-4.84,1.12-8.2,2.45-5.32,5.09-8.57,5.2-8,.21,1.12-.36,10.71-2.18,14.14-.28.53-2.48,4.86-3.09,5.37l2.92-.23c1.48-.11,2.95-.2,4.43-.29a33.55,33.55,0,0,1-.79-4.53A26.5,26.5,0,0,1,610.92,214c3.62-7,12.86-13.93,13.75-13.54.08,0,.1.11.09.22-.14.77-2.45,3.36-3.91,6.88-.34.82-2.91,10.08-2.93,10.18-.31,1.09-1.14,3.84-1.19,4l0,0a30.08,30.08,0,0,1-2.74,4.05l-.09.09-.19.19a27.31,27.31,0,0,1-3.81,3.26c3-.17,6.06-.28,9.09-.35a35.61,35.61,0,0,1-.1-4.48,28.81,28.81,0,0,1,3.49-9.87c3.78-6.22,12.1-12.1,12.78-11.69.22.14-.23.74-1,1.72a68.22,68.22,0,0,0-3.54,5.86l0,.08c-.12.31-1.76,4.56-2,5.17l-.08.22c-.69,1.82-2.35,6-2.41,6.13l-.2.39a15,15,0,0,1-2.53,3.22l-.08.08-.17.17a25.85,25.85,0,0,1-3.84,3l1.11,0c2.2,0,4.41,0,6.61,0a37.7,37.7,0,0,1,.69-3.71,30.79,30.79,0,0,1,4.23-8.14c3.79-4.95,10.74-9.06,11.15-8.62l0,0v0a.26.26,0,0,1,0,.11,2.13,2.13,0,0,1-.29.42l-.31.35c-.23.26-5.67,8.24-5.8,8.48l-1.32,2.42-.2.38-.11.18a45,45,0,0,1-4.34,5.95l-.07.06-.16.12a20.12,20.12,0,0,1-2.86,1.94c2.2,0,4.39.07,6.59.14a33.07,33.07,0,0,1,1.27-3.26,27.88,27.88,0,0,1,5-6.43c4.11-3.73,10.82-6.31,11.1-5.87s-7.35,7.5-7.48,7.66l-1.53,1.88-.08.1c-.54.68-1.09,1.34-1.59,1.94l-.42.47h0l-.22.22a26.53,26.53,0,0,1-2.47,1.82l-.07,0-.16.09a18.49,18.49,0,0,1-3,1.35l1.66.06q3.06.12,6.1.32a30.38,30.38,0,0,1,1.64-2.94,28.49,28.49,0,0,1,5.87-5.66c4.66-3.23,12-5.31,12.21-4.9.07.1-.83.67-.92.73s-5.72,4.16-7.23,5.57l-.27.25c-1.26,1.17-2.65,2.47-3.86,3.57l-.24.21-.23.19,0,0a31.68,31.68,0,0,1-3,1.74l-.08,0-.17.07a22.93,22.93,0,0,1-3.4,1.13l1.54.1c1.9.13,3.83.26,5.73.48.37-.46,1.57-1.94,2.15-2.48a32.07,32.07,0,0,1,6.52-4.55c4.86-2.45,11.68-3.53,11.79-3.13,0,.11-.29.27-.85.51s-1.71.7-2.87,1.28c-.41.21-5,3.16-5.54,3.5-1.31.88-4.48,3-4.49,3l-.27.15a15.32,15.32,0,0,1-2.77,1.12l-.08,0-.17.05a21.4,21.4,0,0,1-2.89.61l1.23.17,0,0c.49-.09,4.37-.21,4.37-.21l.3,0h.18c.29,0,3.28.63,3.34.65l3,1.22c.53.23,11.11,4.24,12.2,4.45a14.65,14.65,0,0,1,2.17.48c.08,0,.13.09.12.14a0,0,0,0,1,0,0c-.33.54-8.15,1.19-14.11-.41a33.44,33.44,0,0,1-8.43-3.77,36,36,0,0,1-2.78-2.3.21.21,0,0,1-.16.06c-.66,0-1.3-.07-2-.12l-.91-.06a15.19,15.19,0,0,1,2.28,1.22h0l.18.12.05,0,.06.05c.18.12.87.65.92.7s2.85,3.46,3.1,3.8,2.39,3.27,2.43,3.33l.67.85a20.85,20.85,0,0,0,2.1,2.06,9.76,9.76,0,0,1,1.19,1.1.11.11,0,0,1,0,.13h0c-.43.23-5.66-2.19-8.79-5.36a23.19,23.19,0,0,1-3.83-5.46,26,26,0,0,1-.88-2.62l-5.07-.34a17.49,17.49,0,0,1,2.35,1.55l.13.1.06.05.18.15h0a10.72,10.72,0,0,1,1.8,1.88h0c.06.07.11.15.16.22v0l.15.23v0c0,.08.1.15.14.23l.81,1.46,1.33,2.43.16.3c.37.69,4.77,7,4.93,7.16a6,6,0,0,1,.43.51c.09.13.12.22.07.26-.37.35-6.3-3.05-9.44-7.07a22.87,22.87,0,0,1-3.41-6.58,25.15,25.15,0,0,1-.48-3c-1.82-.11-3.64-.21-5.46-.29a17.29,17.29,0,0,1,2.51,2l.13.12,0,.06a28,28,0,0,1,2.3,3.18c.1.21.46,1,.51,1.14l1,2.23c.05.11.85,2,.94,2.18l.07.15.64,1.47c.15.35.3.68.43,1l.09.2c.15.33.28.59.37.76.28.5,1.18,1.9,1.28,2l.53.74.69.9c.42.55.65.9.54,1-.39.35-6.15-3.75-9.06-8.35a26.43,26.43,0,0,1-3-7.43,32,32,0,0,1-.31-3.37c-1,0-1.93-.08-2.89-.11-1.61-.05-3.23-.08-4.84-.1a19.19,19.19,0,0,1,3.07,2.29l.15.13.06.06a26.66,26.66,0,0,1,2.19,2.62c.06.09.29.5.34.59l0,0c.05.1.66,1.38.92,1.95l1.09,2.37.14.29s6,10.29,6,10.37a5.49,5.49,0,0,1,.35.54.14.14,0,0,1,0,.06.43.43,0,0,0,0,.05l0,.08c-.44.42-7.09-4-10.51-9.16a29.61,29.61,0,0,1-3.64-8.34,38.2,38.2,0,0,1-.44-3.94c-2.63,0-5.25,0-7.88,0,.8.46,6.39,5.25,8,8.5l1.68,3.81c.06.15,1.42,3.26,1.48,3.38s.89,2,.91,2,.49,1,.52,1.07,4.89,6.17,4.43,6.49c-.64.44-9.2-5.07-13.28-11.12a29.35,29.35,0,0,1-4-9.71,36.43,36.43,0,0,1-.14-4.45l-2.46.05q-3.22.09-6.45.24c1,.58,4.74,3.62,4.74,3.62a13.94,13.94,0,0,1,2.53,3.21s.34.67.39.79,2.14,6.09,2.2,6.25l1,3.09c.28.78,1.93,4.88,2.13,5.23a59.32,59.32,0,0,0,3.57,5.13l.08.13a1.17,1.17,0,0,1,.13.3c0,.11,0,.18-.07.22-.88.45-10.62-5.91-14.69-12.64a26.12,26.12,0,0,1-3.33-10.66,32.16,32.16,0,0,1,.54-4.63q-4.32.22-8.61.57l-.76.06A20.17,20.17,0,0,1,604.5,233l.14.14.06.07a23.85,23.85,0,0,1,2,3l0,0c0,.1.43,1.19.53,1.49l.85,2.62c.06.18,2,6.15,2.06,6.2s3.44,5.34,3,5.56c-.55.31-7-4.77-9.79-9.94a23.69,23.69,0,0,1-2.42-8.13,30.17,30.17,0,0,1,.24-3.48c-4.81.41-9.62.9-14.45,1.15a93.14,93.14,0,0,1-12.39,0C573.74,231,574.34,230.81,575.36,231.05Z"/><path class="cls-4" d="M599.14,207.38h0a104.69,104.69,0,0,0,7.35-11.53c2-3.52,3.82-7.1,5.73-10.66a25.11,25.11,0,0,1-3.11-1.45c-.84-.55-4.29-2.28-6.26-5.4-3.14-5-4.42-8.94-3.85-8.7,1,.43,8.78,6.13,10.67,9.53.29.52,2.73,4.72,2.82,5.52.46-.87.93-1.73,1.4-2.59q1.07-1.93,2.17-3.87a32.35,32.35,0,0,1-4.24-1.81,26.64,26.64,0,0,1-7.63-8.15c-3.87-6.83-4.68-18.37-3.87-18.91a.19.19,0,0,1,.23.05c.58.54,1.49,3.88,3.65,7,.5.73,6.87,7.92,6.94,8,.75.85,2.61,3,2.68,3.16l0,0a29.89,29.89,0,0,1,1.9,4.5l0,.12.06.27a26.71,26.71,0,0,1,.65,5q2.26-3.94,4.67-7.82a34.27,34.27,0,0,1-3.82-2.35A28.72,28.72,0,0,1,611,159c-3.16-6.56-3.56-16.74-2.84-17.08.23-.12.49.59.92,1.74a67.08,67.08,0,0,0,3,6.16l0,.07,3.25,4.48.14.2c1.15,1.56,3.77,5.24,3.83,5.35l.22.39a14.58,14.58,0,0,1,1.32,3.86l0,.11c0,.08,0,.16,0,.24a24.37,24.37,0,0,1,.43,4.86l.59-.94q1.76-2.8,3.58-5.56a35.34,35.34,0,0,1-2.74-2.61,30.44,30.44,0,0,1-4.53-8c-2.08-5.87-1.75-13.95-1.16-14.05h0l0,0a.35.35,0,0,1,.07.09,1.86,1.86,0,0,1,.19.47c0,.13.09.28.13.45.09.33,3.82,9.24,4,9.48l1.32,2.42c.06.13.13.25.2.38l.1.19a45.44,45.44,0,0,1,2.62,6.88v.09a1.36,1.36,0,0,1,0,.2,20.82,20.82,0,0,1,.07,3.45c1.22-1.83,2.45-3.64,3.71-5.44a31.88,31.88,0,0,1-2-2.85,27.37,27.37,0,0,1-2.66-7.71c-.9-5.48.6-12.52,1.12-12.51.36,0,2.29,10.25,2.35,10.44s.55,1.68.75,2.31l0,.12.76,2.4c0,.09.14.5.16.59v0l.06.3a27.69,27.69,0,0,1,.18,3.06v.08c0,.06,0,.12,0,.18a18.88,18.88,0,0,1-.52,3.27l1-1.36c1.17-1.66,2.37-3.31,3.58-4.94a32.79,32.79,0,0,1-1.57-3,28.92,28.92,0,0,1-1.55-8c-.17-5.67,2.06-12.92,2.54-12.91.12,0,.11,1.06.11,1.17s.38,7.06.73,9.1l.07.36c.3,1.7.63,3.56.89,5.17,0,.1,0,.32,0,.33l0,.29v0a30.79,30.79,0,0,1-.17,3.47v.09a1.16,1.16,0,0,1,0,.18,22.25,22.25,0,0,1-.9,3.47l.92-1.24c1.15-1.52,2.31-3.07,3.52-4.55-.18-.55-.76-2.37-.91-3.15a32.18,32.18,0,0,1-.26-7.94c.59-5.41,3.39-11.72,3.8-11.6.1,0,.06.39,0,1s-.34,1.82-.49,3.11c0,.46-.09,5.94-.08,6.55,0,1.58.05,5.38.05,5.39s0,.3,0,.3a14.31,14.31,0,0,1-.57,2.94l0,.08a1.09,1.09,0,0,0-.05.17,21.25,21.25,0,0,1-1.07,2.75c.27-.31.54-.63.81-.93h0c.2-.46,2.21-3.77,2.22-3.77a2,2,0,0,1,.18-.25l0-.05.07-.09c.18-.23,2.31-2.41,2.36-2.45l2.66-1.86c.48-.32,9.61-7,10.38-7.81a14.5,14.5,0,0,1,1.59-1.56c.08,0,.14-.06.17,0s0,0,0,0c.28.57-3.43,7.49-8,11.61a33.59,33.59,0,0,1-7.75,5c-.76.33-2.58.85-3.45,1.09a.17.17,0,0,1,0,.16c-.37.54-.76,1.06-1.15,1.58l-.55.72a15.44,15.44,0,0,1,2.26-1.24h0l.2-.08,0,0,.07,0c.2-.09,1-.37,1.09-.39s4.46-.51,4.87-.53l4.12-.23,1.08-.1a21.62,21.62,0,0,0,2.87-.64,10.47,10.47,0,0,1,1.56-.4.14.14,0,0,1,.13.05v0c0,.48-4.92,3.55-9.29,4.45a22.86,22.86,0,0,1-6.66.24,25,25,0,0,1-2.68-.68q-1.53,2-3,4.06a16.85,16.85,0,0,1,2.58-1.12l.15-.06.08,0,.22-.07h0a10.36,10.36,0,0,1,2.55-.48h.88l1.66.11,2.76.21.34,0c.78.06,8.46-.2,8.69-.24l.66-.09c.16,0,.25,0,.26.09.09.5-6,3.63-11.07,4.07a22.74,22.74,0,0,1-7.37-.72A26.25,26.25,0,0,1,635,150.3q-1.62,2.2-3.21,4.42a18.14,18.14,0,0,1,3.05-1l.17,0h.08a29.91,29.91,0,0,1,3.92-.2l1.23.2,2.39.4,2.34.39.18,0,1.57.26,1,.16.22,0,.84.1c.57,0,2.24,0,2.4,0l.91-.05,1.13-.08c.7,0,1.12-.06,1.14.09.09.52-6.49,3.11-11.94,3.05a26.58,26.58,0,0,1-7.89-1.48,33.43,33.43,0,0,1-3-1.58c-.56.78-1.11,1.57-1.66,2.37-.92,1.32-1.83,2.66-2.72,4a18.89,18.89,0,0,1,3.59-1.33l.19,0,.09,0a27.73,27.73,0,0,1,3.38-.41l.69,0h0l2.14.28,2.58.38.32,0,12,.61h.65l.06,0,0,0a.1.1,0,0,1,0,.07c.12.59-7.23,3.75-13.39,3.83a29.87,29.87,0,0,1-9-1.49,39.09,39.09,0,0,1-3.55-1.77c-1.45,2.18-2.88,4.38-4.27,6.61.82-.42,7.88-2.5,11.49-2.09l4.11.67,3.64.6,2.2.34,1.19.15c.14,0,7.84-.74,7.85-.19,0,.79-9.26,5-16.56,5.09a29.24,29.24,0,0,1-10.31-1.94,35.76,35.76,0,0,1-3.81-2.31c-.44.7-.87,1.4-1.3,2.1-1.12,1.83-2.23,3.68-3.31,5.54,1-.5,5.61-2,5.61-2a14.09,14.09,0,0,1,4.08-.37l.87.1,6.44,1.56,3.17.8c.8.19,5.15,1,5.54,1.06a58.71,58.71,0,0,0,6.25-.2h.15a1.22,1.22,0,0,1,.33.06c.1,0,.15.09.14.18-.1,1-10.74,5.69-18.59,5.44a26.37,26.37,0,0,1-10.77-3,33.38,33.38,0,0,1-3.59-3c-1.44,2.49-2.84,5-4.21,7.54L613,185a20.05,20.05,0,0,1,3.62-1l.2,0H617a23.49,23.49,0,0,1,3.62-.08h0l1.53.36,2.67.71,6.32,1.66c.11,0,6.35,0,6.32.47-.05.63-7.81,3.28-13.67,2.8a23.56,23.56,0,0,1-8.13-2.39,29.19,29.19,0,0,1-2.8-2.1c-2.27,4.26-4.48,8.56-6.9,12.75a94.72,94.72,0,0,1-6.78,10.37C598.19,208.69,598.39,208.1,599.14,207.38Z"/><path class="cls-5" d="M614.14,217.83a23.91,23.91,0,0,0,8.93,4.66c7.38-1.42,15.68-5.66,23.49-11.41a35.37,35.37,0,0,1-8.94-4s7,2.3,13.74.19l1-.88a26.28,26.28,0,0,1-9.84-7.12s7.51,3.22,14.12,3.21c7.36-7.1,13.51-15.2,16.9-22.84h-.24c-5.68-.05-12-3.25-12-3.25s7.24,2.19,13.68-.58c1.65-5.13,1.87-9.93.13-13.93-6.78-4.72-16.92-3.86-27.47.27a20.72,20.72,0,0,0-6.09,10.56,14.62,14.62,0,0,1-.51-7.58,93.23,93.23,0,0,0-14.38,9.13,23.86,23.86,0,0,0-1.26,10.07,36.23,36.23,0,0,1-1.36-8,91.73,91.73,0,0,0-7.36,6.76,19.58,19.58,0,0,0,1.53,9.9,13.36,13.36,0,0,1-4.91-6.19c-9.35,11-13.85,22.82-7.61,31,3.38,3.92,8.12,5.41,13.54,5.1A37.27,37.27,0,0,1,614.14,217.83Z"/><path class="cls-3" d="M595.83,228a170.77,170.77,0,0,1,17.85-18.89c6.34-5.87,12.92-11.45,19.65-16.84s13.59-10.61,20.56-15.65,14.08-9.94,21.35-14.54c-7.15,4.78-14.12,9.84-21,15s-13.57,10.58-20.14,16.12-13,11.26-19.14,17.25a168.34,168.34,0,0,0-17.13,19Z"/><path class="cls-4" d="M608.21,258.91a14.77,14.77,0,0,0-.32,6.15c2.67,3.74,7.14,7.27,12.32,10.15a21.7,21.7,0,0,1-.07-6,15.42,15.42,0,0,0,3.39,7.68l.75.35a16,16,0,0,1,1.45-7.27,25.87,25.87,0,0,0,1.81,8.66,46.75,46.75,0,0,0,17,3.58l-.06-.13a19.74,19.74,0,0,1-1.24-7.48,13.7,13.7,0,0,0,3.8,7.46c3.27-.39,6-1.49,7.78-3.47.9-5-2.16-10.39-7.14-15.21a12.65,12.65,0,0,0-7.41-.7,8.9,8.9,0,0,1,4.08-2.21,57.37,57.37,0,0,0-8.73-5.67,14.66,14.66,0,0,0-5.92,1.86,22.8,22.8,0,0,1,4.09-2.79,57.49,57.49,0,0,0-5.62-2.37A12,12,0,0,0,623,254.9a8.15,8.15,0,0,1,2.2-4.3c-8.47-2.41-16.21-1.9-19.18,3.65-1.32,2.88-.95,5.89.61,8.83A22.48,22.48,0,0,1,608.21,258.91Z"/><path class="cls-5" d="M597.92,251.31a104,104,0,0,1,15,5.12c4.87,2,9.65,4.27,14.36,6.64s9.35,4.85,13.93,7.45,9.1,5.3,13.5,8.17c-4.47-2.76-9.06-5.35-13.69-7.83S631.73,266,627,263.77s-9.56-4.36-14.45-6.25a101.18,101.18,0,0,0-14.93-4.68Z"/><path class="cls-4" d="M523.05,207.09h0A103.15,103.15,0,0,0,510.7,213c-3.54,1.93-7,4-10.52,6a25.7,25.7,0,0,1,1.86,2.88c.42.91,2.42,4.21,2.43,7.9,0,5.86-1,9.93-1.36,9.42-.66-.93-4.18-9.86-4-13.74,0-.6.2-5.45.55-6.18l-2.56,1.45c-1.29.72-2.59,1.42-3.89,2.12a32.26,32.26,0,0,1,2.62,3.78,26.42,26.42,0,0,1,2.13,11c-.35,7.84-5.8,18.05-6.77,18.07-.09,0-.14-.06-.17-.16-.21-.76.8-4.08.64-7.9,0-.88-1.6-10.36-1.62-10.46-.18-1.12-.59-4-.59-4.1v0a29.06,29.06,0,0,1,.78-4.82s0-.08,0-.12l.09-.26a27.4,27.4,0,0,1,2.09-4.56q-4,2.15-8.1,4.15a35.1,35.1,0,0,1,2,4,28.9,28.9,0,0,1,1,10.42c-.81,7.23-5.89,16.07-6.67,16-.26,0-.11-.77.14-2a66.46,66.46,0,0,0,.75-6.81v-.08c0-.34-.33-4.88-.37-5.53l0-.24c-.14-1.94-.4-6.44-.4-6.57l0-.44a15.3,15.3,0,0,1,.94-4l0-.1c0-.08.05-.16.08-.23a25.41,25.41,0,0,1,2.22-4.34l-1,.48q-3,1.44-6,2.81a37.65,37.65,0,0,1,.93,3.66,30.39,30.39,0,0,1-.4,9.16c-1.36,6.08-5.93,12.75-6.48,12.52l0,0s0,0,0,0a.36.36,0,0,1,0-.11,2.74,2.74,0,0,1,.09-.51l.13-.44c.1-.33,1.68-9.86,1.7-10.13s.13-2.11.17-2.75l0-.43v-.22a47.07,47.07,0,0,1,1.44-7.22l0-.08.09-.18a20,20,0,0,1,1.78-3c-2,.9-4,1.79-6,2.64.05.57.26,2.66.21,3.5a27.59,27.59,0,0,1-1.85,7.94c-2.15,5.12-7.16,10.28-7.6,10s3.51-9.9,3.56-10.1.43-1.7.59-2.34l0-.13c.22-.84.43-1.67.63-2.43,0-.1.15-.5.19-.59v0c0-.09.07-.19.11-.28a26.12,26.12,0,0,1,1.47-2.7l0-.06.1-.15a18.51,18.51,0,0,1,2.18-2.49l-1.54.64c-1.88.78-3.76,1.54-5.66,2.28a30.1,30.1,0,0,1-.25,3.36,28.89,28.89,0,0,1-2.94,7.59c-2.86,4.9-8.61,9.86-9,9.6-.09-.07.47-1,.54-1s3.43-6.19,4.21-8.1l.14-.34c.65-1.6,1.36-3.36,2-4.86,0-.09.13-.29.14-.3s.08-.18.13-.27v0a29.15,29.15,0,0,1,2-2.85l.06-.07.12-.14a22.74,22.74,0,0,1,2.61-2.45l-1.44.56c-1.78.68-3.58,1.38-5.4,2-.14.57-.61,2.42-.9,3.15a32.32,32.32,0,0,1-4,6.87c-3.37,4.27-9.1,8.12-9.37,7.8-.07-.08.15-.36.55-.81s1.26-1.36,2.07-2.38c.29-.36,3.24-5,3.55-5.5.82-1.36,2.81-4.59,2.82-4.59l.18-.25a14.82,14.82,0,0,1,2.05-2.19l.06-.05.13-.12a20.08,20.08,0,0,1,2.36-1.76l-1.18.36h0c-.41.29-3.88,2-3.88,2l-.28.11-.07,0-.1,0c-.28.11-3.24.82-3.31.82s-2.38.13-3.24.16c-.58,0-11.87.83-12.94,1.1a14,14,0,0,1-2.17.48c-.1,0-.15,0-.17-.07v0c.07-.63,6.89-4.51,13-5.57a33.86,33.86,0,0,1,9.24-.13c.82.13,2.64.66,3.49.92a.2.2,0,0,1,.13-.12c.6-.26,1.2-.49,1.81-.72l.85-.32a16.22,16.22,0,0,1-2.58-.15h0l-.22,0h-.05l-.08,0c-.21,0-1.06-.23-1.13-.25s-4-1.94-4.41-2.14-3.54-2-3.6-2l-1-.5a22.07,22.07,0,0,0-2.78-1,10.18,10.18,0,0,1-1.53-.49c-.06,0-.09-.08-.08-.11a0,0,0,0,1,0,0c.3-.39,6.06-.4,10.24,1.16a23,23,0,0,1,5.77,3.34,25.09,25.09,0,0,1,1.9,2q2.37-.9,4.74-1.83a16.62,16.62,0,0,1-2.78-.41l-.16,0-.08,0-.23-.06h0a11,11,0,0,1-2.41-.94h0l-.24-.14h0l-.23-.14,0,0-.22-.15-1.35-1L451.78,232l-.27-.2c-.63-.47-7.27-4.32-7.49-4.42l-.61-.28c-.13-.08-.19-.15-.17-.21.19-.47,7,.12,11.54,2.44a23,23,0,0,1,5.87,4.53,27.15,27.15,0,0,1,1.68,2.49c1.69-.66,3.39-1.34,5.07-2a18.28,18.28,0,0,1-3.12-.76l-.16-.06-.08,0a28.62,28.62,0,0,1-3.42-1.92l-.94-.82-1.82-1.61-1.77-1.58-.13-.12-1.19-1.05-.8-.7-.17-.14-.65-.53c-.47-.34-1.88-1.23-2-1.31l-.8-.45-1-.53c-.61-.32-1-.54-.91-.68.2-.48,7.15.82,11.73,3.76a26.63,26.63,0,0,1,5.89,5.45,31.65,31.65,0,0,1,1.71,2.94l2.67-1.12c1.48-.64,2.95-1.29,4.43-1.95a19.58,19.58,0,0,1-3.75-.78l-.19-.06-.09,0a28.8,28.8,0,0,1-3.08-1.45c-.09-.06-.48-.33-.56-.4l0,0c-.08-.06-1.18-1-1.66-1.38l-2-1.68-.25-.21s-9.73-6.83-9.81-6.87l-.55-.35,0,0,0-.05a.09.09,0,0,1,0-.07c.22-.57,8.12.67,13.38,3.87a29.37,29.37,0,0,1,6.81,6,38.87,38.87,0,0,1,2.07,3.38q3.59-1.6,7.13-3.33c-.91-.07-8-2.07-10.84-4.34-.13-.1-3.05-2.68-3.13-2.75l-2.76-2.44-1.69-1.46-.92-.76c-.11-.08-7-3.54-6.75-4,.4-.68,10.48.72,16.73,4.49a29.23,29.23,0,0,1,7.7,7.13,34.45,34.45,0,0,1,2,4l2.22-1.09c1.93-1,3.84-1.93,5.75-2.93-1.12-.12-5.83-1.28-5.83-1.28a14.51,14.51,0,0,1-3.64-1.85l-.69-.56-4.63-4.74-2.25-2.36c-.58-.59-3.81-3.62-4.13-3.85a59.15,59.15,0,0,0-5.41-3.15l-.12-.08a1.44,1.44,0,0,1-.25-.22c-.07-.09-.08-.16,0-.23.6-.78,12.12.89,18.64,5.28a26.23,26.23,0,0,1,7.52,8.27,31,31,0,0,1,1.45,4.43q3.82-2,7.57-4.15l.66-.38a19.88,19.88,0,0,1-3.61-1.06l-.19-.07-.08,0a24,24,0,0,1-3.11-1.86h0c-.08-.07-.89-.9-1.11-1.13l-1.88-2c-.12-.13-4.43-4.72-4.48-4.76s-5.36-3.39-5.09-3.75c.37-.52,8.35,1.37,13.06,4.89a23.58,23.58,0,0,1,5.62,6.35,27.89,27.89,0,0,1,1.25,3.26c4.19-2.4,8.35-4.86,12.62-7.13a93.79,93.79,0,0,1,11.26-5.17C524.56,206.49,524.07,206.88,523.05,207.09Z"/><path class="cls-5" d="M515.61,222.44a23.88,23.88,0,0,0,3.62-9.41c-2.26-7.17-7.41-14.93-14-22a35.43,35.43,0,0,1-2.92,9.33s1.49-7.26-1.37-13.67l-1-.93a26.39,26.39,0,0,1-6,10.59s2.35-7.83,1.59-14.4c-7.89-6.5-16.63-11.7-24.62-14.19,0,.15,0,.24,0,.24.59,5.64-1.87,12.26-1.87,12.26s1.35-7.43-2.13-13.52c-5.29-1.06-10.09-.73-13.86,1.45-3.92,7.28-1.92,17.25,3.39,27.27a20.75,20.75,0,0,0,11.18,4.85,14.56,14.56,0,0,1-7.47,1.36,93.31,93.31,0,0,0,10.7,13.26,24,24,0,0,0,10.16.11,36.62,36.62,0,0,1-7.79,2.25,91.49,91.49,0,0,0,7.55,6.54,19.57,19.57,0,0,0,9.67-2.64,13.32,13.32,0,0,1-5.6,5.58c11.95,8.05,24.25,11.17,31.69,4,3.51-3.81,4.45-8.68,3.52-14A37,37,0,0,1,515.61,222.44Z"/><path class="cls-3" d="M527.77,239.47A168.48,168.48,0,0,1,507,223.88c-6.56-5.62-12.85-11.53-19-17.6S475.93,194,470.12,187.63s-11.47-12.86-16.87-19.56c5.56,6.57,11.39,12.91,17.34,19.12s12.05,12.27,18.31,18.17,12.66,11.63,19.31,17.06a166.75,166.75,0,0,0,20.86,14.85Z"/><path class="cls-4" d="M500.6,248.75a14.69,14.69,0,0,0-4.09-4.6c-4.53-.78-10.19-.15-15.9,1.45a22,22,0,0,1,4.25,4.2,15.47,15.47,0,0,0-7.81-3.08l-.79.28a15.92,15.92,0,0,1,4.09,6.2,25.89,25.89,0,0,0-7.38-4.89,46.93,46.93,0,0,0-14.59,9.41l.13,0a19.65,19.65,0,0,1,6.15,4.45,13.75,13.75,0,0,0-8-2.62c-2,2.57-3.22,5.27-3.09,7.93,2.86,4.17,8.84,5.87,15.77,5.79a12.66,12.66,0,0,0,5.76-4.72,8.86,8.86,0,0,1-1.34,4.44A56.82,56.82,0,0,0,484,270.92a14.56,14.56,0,0,0,2.9-5.49,22.37,22.37,0,0,1-.95,4.87,55.87,55.87,0,0,0,5.67-2.28,12,12,0,0,0,1.27-6,8.13,8.13,0,0,1,1.46,4.6c7.72-4.24,12.86-10.05,11.06-16.09a9.64,9.64,0,0,0-6.64-5.84A22.27,22.27,0,0,1,500.6,248.75Z"/><path class="cls-5" d="M513.26,246.91A103.44,103.44,0,0,1,499,253.85c-4.89,2-9.86,3.76-14.87,5.38S474,262.36,469,263.74s-10.19,2.64-15.35,3.69c5.13-1.18,10.2-2.57,15.24-4.07s10-3.12,15-4.86,9.86-3.63,14.67-5.73a101.52,101.52,0,0,0,13.91-7.18Z"/><path class="cls-6" d="M469.28,301.16c-.27,3.69,36.53,9.62,82.17,13.22s82.86,3.53,83.12-.16S598,304.6,552.39,301,469.54,297.46,469.28,301.16Z"/><path class="cls-7" d="M505.38,304.21l92.91,10.08h9.13c7,0,12.6-6.48,12.6-14.47V61.1c0-8-5.64-14.47-12.6-14.47h-9.13L505.38,56.71c-7,0-12.6,6-12.6,13.38V290.82C492.78,298.22,498.42,304.21,505.38,304.21Z"/><rect class="cls-8" x="588.06" y="70.58" width="31.96" height="8.14" transform="translate(1208.09 149.3) rotate(180)"/><rect class="cls-8" x="588.06" y="284.09" width="31.96" height="8.14" transform="translate(1208.09 576.32) rotate(180)"/><path class="cls-8" d="M505.38,56.71l92.91-10.08h9.13c7,0,12.6,6.48,12.6,14.47v2.72H610.4L493,67.65A12.83,12.83,0,0,1,505.38,56.71Z"/><path class="cls-8" d="M620,299.82c0,8-5.64,14.47-12.6,14.47h-9.13l-92.91-10.08c-5.85,0-10.76-.59-12.18-6.33L620,297.53Z"/><path class="cls-9" d="M496.25,304.21l102,10.08c7,0,12.6-6.48,12.6-14.47V61.1c0-8-5.64-14.47-12.6-14.47l-102,10.08c-7,0-12.61,6-12.61,13.38V290.82C483.64,298.22,489.29,304.21,496.25,304.21Z"/><path class="cls-10" d="M483.64,70.09c0-7.39,5.65-13.38,12.61-13.38l102-10.08c7,0,12.6,6.48,12.6,14.47V75.46L483.64,83.37Z"/><path class="cls-10" d="M610.89,299.82c0,8-5.64,14.47-12.6,14.47l-102-10.08c-7,0-12.61-6-12.61-13.39V277.55l127.25,7.91Z"/><path class="cls-7" d="M524.45,70.16h.18l38.64-3.68a1.86,1.86,0,0,0,1.67-2,1.84,1.84,0,0,0-2-1.67l-38.64,3.68a1.86,1.86,0,0,0,.17,3.71Z"/><path class="cls-7" d="M517.73,69a1.8,1.8,0,1,0,1.8-1.8A1.8,1.8,0,0,0,517.73,69Z"/><g class="cls-11"><path class="cls-12" d="M487.52,169.71c0,6.73-4.76,22.51-10.69,22-7.44-.63-6.77-2.39-3.81-4.42,2.23-1.53,7.86-12.46,6.76-19.07C481.55,166.13,487.52,169.71,487.52,169.71Z"/><path class="cls-13" d="M488.64,169.39c0,6.73-5.3,22.56-11.25,22.41-7.75-.19-6.53-2.84-3.81-4.42,2.33-1.36,8.33-11.77,7.38-19C482.73,166.32,488.64,169.39,488.64,169.39Z"/><path class="cls-14" d="M480.56,174.13a16.62,16.62,0,0,0,.4-5.72c1.77-2.09,7.68,1,7.68,1a37.2,37.2,0,0,1-2.32,11.06A14.7,14.7,0,0,0,480.56,174.13Z"/><path class="cls-15" d="M479.71,174.53l.3.07s-.87,3.22-1.45,4.78C475.55,179,475.27,178.91,479.71,174.53Z"/><path class="cls-16" d="M480,174.6a28.91,28.91,0,0,1-1.45,4.78C476.38,179,475.58,179,480,174.6Z"/><path class="cls-17" d="M502.87,152.43a11.73,11.73,0,0,1,1.24,7c-.46,4.76-2.28,7.65-4.32,9.39a9.69,9.69,0,0,0,6.33-7.91C506.8,156.07,504,153,502.87,152.43Z"/><path class="cls-18" d="M432.85,178.24c3.36-2.49,12.92-9.59,25.65-9.17s33,2.27,35.06,2.24,9.55-1.54,10.55-11.92c.75-7.82-4.39-10.87-7.16-11.52-3.39-.8-23.51-5.5-30.41-7.22a43.83,43.83,0,0,1-25.74-17.24C441.26,135.84,441.94,158.79,432.85,178.24Z"/><path class="cls-19" d="M466.54,140.65a43.83,43.83,0,0,1-25.74-17.24c.12,3.13.25,6.93.23,11.18,8.12,3,18.56,5.06,27.42,6.53Z"/><path class="cls-20" d="M503.19,153.43l.83.24.34.52-1-.26Z"/><path class="cls-20" d="M503.59,154.73l1.36.4.3.65-1.47-.38Z"/><path class="cls-20" d="M503.85,156.32l1.59.47.23.74-1.6-.43Z"/><path class="cls-20" d="M503.89,158.25l1.93.4-.05.76-2-.35Z"/><path class="cls-20" d="M503.77,160.19l1.94.33-.12.82-2-.31Z"/><path class="cls-20" d="M503.37,162.16l2,.28-.26.68-2-.23Z"/><path class="cls-21" d="M504.07,154.11l.29.08-.34-.52-.83-.24,0,.07.58.17Z"/><path class="cls-21" d="M503.61,154.81l1.1.32.27.58.27.07-.3-.65-1.36-.4Z"/><path class="cls-21" d="M503.87,156.4l1.33.39.21.67.26.07-.23-.74-1.59-.47Z"/><path class="cls-21" d="M503.89,158.25v.05l1.69.35,0,.72.23,0,.05-.76Z"/><path class="cls-21" d="M503.76,160.23l1.71.29-.11.78.23,0,.12-.82-1.94-.33Z"/><path class="cls-21" d="M503.36,162.19l1.77.25-.25.65.22,0,.26-.68-2-.28Z"/><path class="cls-17" d="M481.6,155.85c.56-7.95-2.09-11.18-4.65-12.69l-.64-.15c2.64,1.44,5.5,4.62,4.92,12.84-.59,8.53-5.12,12.59-9,14l.31,0C476.43,168.49,481,164.42,481.6,155.85Z"/><path class="cls-21" d="M499.13,159.54c.91-7.56-2.68-10.79-4.93-12.31L477,143.16c2.56,1.51,5.21,4.74,4.65,12.69-.6,8.57-5.17,12.64-9,14,7.08.47,13.95,1,17.86,1.3A13.53,13.53,0,0,0,499.13,159.54Z"/><path class="cls-17" d="M499.62,159.54c.89-7.29-2.42-10.55-4.66-12.14l-.76-.17c2.25,1.52,5.84,4.75,4.93,12.31a13.53,13.53,0,0,1-8.7,11.59l.43,0A13.52,13.52,0,0,0,499.62,159.54Z"/><path class="cls-21" d="M497,147.87l-2-.47c2.24,1.59,5.55,4.85,4.66,12.14a13.52,13.52,0,0,1-8.76,11.62c1.38.1,2.33.15,2.7.15,2.07,0,9.55-1.54,10.55-11.92C504.86,151.57,499.72,148.52,497,147.87Z"/><path class="cls-14" d="M438.92,158.85a81.11,81.11,0,0,1-6.07,19.39c3.36-2.49,12.92-9.59,25.65-9.17s33,2.27,35.06,2.24a10.64,10.64,0,0,0,8-4.5C487.36,164.94,454,160.74,438.92,158.85Z"/><ellipse class="cls-22" cx="428.66" cy="148.76" rx="39.11" ry="12.12" transform="translate(228.17 555.8) rotate(-82.92)"/><path class="cls-18" d="M435.74,149.86c-2.18,17.52-6.9,28.54-9.52,30.89-6.56,1.24-8.31-15.32-6.14-32.83s7.24-31.74,14.06-30.56C435.91,120.52,437.92,132.35,435.74,149.86Z"/><path class="cls-14" d="M429.37,119.18a5.36,5.36,0,0,1,4.77-1.82c1.77,3.16,3.78,15,1.6,32.5s-6.9,28.54-9.52,30.89c-2.83.53-4.76-2.24-5.87-7C434.46,168.38,440.78,134.3,429.37,119.18Z"/><g class="cls-23"><path class="cls-24" d="M434.8,158s-4.67-1-6.79-1.75-2.66-1.32-2.89-2.47.07-7.14.81-8.52a3.41,3.41,0,0,1,3-1.78c1.11-.09,6.19.14,7.67.26C437.23,147.49,436,155.65,434.8,158Z"/><path class="cls-25" d="M427.72,149.63c-.37,2.68-1.39,4.76-2.28,4.64s-1.29-2.4-.91-5.09,1.4-4.76,2.28-4.64S428.1,146.94,427.72,149.63Z"/><path class="cls-26" d="M427.4,149.58c-.33,2.36-1.17,4.19-1.87,4.1s-1-2.09-.68-4.45,1.17-4.19,1.87-4.1S427.73,147.22,427.4,149.58Z"/><path class="cls-27" d="M426,149.23a8.83,8.83,0,0,1,1.17-3.63c-.13-.27-.29-.44-.48-.47-.7-.09-1.53,1.74-1.87,4.1s0,4.35.68,4.45c.22,0,.46-.14.7-.46A8.2,8.2,0,0,1,426,149.23Z"/></g><path class="cls-28" d="M477,143.16l17.25,4.07a10.86,10.86,0,0,1,4.15,4.94l-17.27-3.32A9,9,0,0,0,477,143.16Z"/><path class="cls-28" d="M495,147.4l2,.47a9.51,9.51,0,0,1,6.26,5.23l-4.32-.83A10.83,10.83,0,0,0,495,147.4Z"/><path class="cls-29" d="M427.16,179.67c-.54.71-2.52,3.08-4.15,3.34-1.94.32-1.5-2.07,1.68-2.77Z"/><path class="cls-21" d="M433.49,110h-.1l.18.2c6.09,2.13,8.94,19.56,6.39,40.11s-9.59,36.75-16,37.33c6.62.65,14.1-16,16.75-37.33S440.13,110.77,433.49,110Z"/><path class="cls-29" d="M434.86,119.1c-.28-.85-1.38-3.74-2.84-4.52-1.73-.93-2.09,1.47.69,3.17C433.65,118.32,434.86,119.1,434.86,119.1Z"/><rect class="cls-30" x="475.56" y="172.38" width="9.8" height="4.74" rx="2.03" transform="translate(845.98 532.2) rotate(-155.63)"/><rect class="cls-30" x="473.6" y="176.5" width="9.8" height="4.74" rx="2.03" transform="translate(862.03 516.3) rotate(-159.16)"/><rect class="cls-30" x="471.62" y="180.69" width="9.8" height="4.74" rx="2.03" transform="translate(846.79 534.46) rotate(-157.51)"/><rect class="cls-30" x="469.8" y="184.88" width="9.8" height="4.74" rx="2.03" transform="translate(862.8 518.56) rotate(-161.04)"/><path class="cls-31" d="M483.19,195.69l.73-2.79s8.16-8.43,6.86-13.11-6.59-2.81-9.56-2.47-1.89,3.7,2.2,5c-4.42-.07-7.95,5.32-9,9.27a8.59,8.59,0,0,0,.78,5.43C476.32,199.79,483.19,195.69,483.19,195.69Z"/><path class="cls-32" d="M520.53,166.91s-13.84-15.25-14.16-36.2C506,108,519.78,98.44,537.06,98.19c14.85-.23,22.4,2.29,27.27,11.49,3.76.93,5.17,4,6.47,6.66,5.37,11,3.54,22.17-.78,32.42C563.33,164.64,548.61,167.58,520.53,166.91Z"/><path class="cls-33" d="M503.16,418.56s9.38-4.52,11-7.8a7.12,7.12,0,0,1,6.66,5.18s7.11,1.24,10.71-2.95l.87,13.43-42.67,0C491,423.31,491.88,420,503.16,418.56Z"/><path class="cls-33" d="M531.57,413a7,7,0,0,1-2.47,1.91c-1,2.73-3,7.82-6.14,11.53h9.48Z"/><path class="cls-34" d="M532.44,426.42l.22,3.1-43.11,0c-.05-1.24-.33-1.86.22-3.1Z"/><path class="cls-33" d="M554,424.25l2.1-8.2s2-5.63,8.07-5.63,8.07,5.63,8.07,5.63l1.51,9.16Z"/><path class="cls-35" d="M553.17,426.53a4,4,0,0,0,.62,2.89h19.62a6.45,6.45,0,0,0,.64-2.94Z"/><path class="cls-33" d="M574,426.36c-.1-1.78-3.85-7.2-10.12-7.2-8,0-9.87,4.54-10.6,6.9a2.28,2.28,0,0,0-.15.53l20.88,0A1.48,1.48,0,0,0,574,426.36Z"/><path class="cls-36" d="M484.73,216.16l1-21.91-13.8-.47s-3.09,35.51,1.55,39.23c5.62,4.5,11.54,4.07,17-.24,12.1-9.48,26.66-27.36,31.21-39.62,1.47-4-5.46-12-8.8-9.4-5.05,3.87-8.55,9.68-14.31,16.49C493,206.82,487.78,212.75,484.73,216.16Z"/><path class="cls-37" d="M511.14,271.21l-.76,142.13s11.12,5.58,21.6,1.22l4-118.3,3.09-.15,15.14,118.46s8,3.6,19.82-.75L562,271.21Z"/><path class="cls-38" d="M562,271.21H511v19.85c4.19,1.83,12.63,4.77,24.81,6.92l.12-1.71,3.11-.15.35,2.43a187.7,187.7,0,0,0,24.85,2Z"/><path class="cls-31" d="M533.48,175.87l-.26,9.43,15.62.43.34-12.27A30.71,30.71,0,0,1,533.48,175.87Z"/><path class="cls-39" d="M549.18,173.46l.26-9.45-15.62-.43-.34,12.29A30.71,30.71,0,0,0,549.18,173.46Z"/><path class="cls-31" d="M539.92,187.43c9.25,0,11.47-5.13,11.79-6.73a60.74,60.74,0,0,0-21.16-.76C530.37,181.8,530.84,187.43,539.92,187.43Z"/><path class="cls-40" d="M572.52,187.61a83.28,83.28,0,0,0-19.74-7.22l-1.4-.29c-.32,1.6-2,6.51-11.3,6.51-9.08,0-9.37-5.22-9.19-7.09l-2.06.3c-4.93.78-11,1.63-16,3.93,0,0-6.63,29.74-3.71,97.47,0,0,22,7.92,57.35,1.18,0,0-3.33-47.44,1.26-66C567.78,216.41,571.06,199.27,572.52,187.61Z"/><path class="cls-36" d="M568.88,211.28c-6.29,33.73-29.42,53.81-60.4,45.9.12,8.18.33,15.2.69,24.87,0,0,22,7.92,57.35,1.18,0,0-3.33-47.44,1.26-66C567.78,217.24,568.24,214.87,568.88,211.28Z"/><path class="cls-31" d="M509.64,132.59c0,19.58-1.91,26.1,1.23,31.79,3,5.35,11.72,12.73,32.21,7.61,14.67-3.67,18.37-15,18.37-15a7.64,7.64,0,0,0,4.49.82,5.61,5.61,0,0,0,4.65-6.08c-.36-5.18-2.75-6.74-4.73-7.29-3.55-1-5.94,2.38-5.94,2.38a105.08,105.08,0,0,0-.85-12.93c-.84-5.47-1.76-11.22-27.65-12.81-6.4-.39-15.06-.55-18.49,1.09C509.75,123.73,509.64,127.32,509.64,132.59Z"/><path class="cls-41" d="M525.63,147.56a12.07,12.07,0,0,0-2.87-.53,3.82,3.82,0,0,0-2.59.71c-.69.56-.45,1.59.16,2.29a11.56,11.56,0,0,0,2.22,1.88,7.53,7.53,0,0,1-2.53-1.6,7.42,7.42,0,0,1-.49-.62,3,3,0,0,1-.28-.78,1.66,1.66,0,0,1,.54-1.56,3.84,3.84,0,0,1,3-.74A7.82,7.82,0,0,1,525.63,147.56Z"/><path class="cls-42" d="M537.89,157.23c3.44,4.08-.23,15.87-10.76,3.44C535.66,160.34,537.89,157.23,537.89,157.23Z"/><path class="cls-43" d="M528.35,135.89c-.61,2.31-2.78,9,3.75,10.39s5.95-6.8,5.95-6.8A86.43,86.43,0,0,0,528.35,135.89Z"/><path class="cls-32" d="M529.82,135.65c7.5,1.46,11.28,5,6.47,4.35S524.87,134.68,529.82,135.65Z"/><path class="cls-44" d="M528.68,146.09c1.17-2.62,4-2.19,4.87.53"/><path class="cls-45" d="M520.34,135.64c.63,1.78,2.75,8.21-2.3,9.72s-5.23-6.78-5.23-6.78S518,136.38,520.34,135.64Z"/><path class="cls-32" d="M519.06,135.47c-5.58,1-9,4.58-3.92,3.33S522,134.94,519.06,135.47Z"/><path class="cls-44" d="M516.29,145.12c.87-3.24,4.33-2.79,4.74-.26"/><path class="cls-32" d="M560.29,127.58c-2.83,2.8-10.32,4.27-16.22,4.27-27.13,0-32.68-7.61-33.56-8.49l4.11-10.16a39.52,39.52,0,0,1,45.67,14.38Z"/><path class="cls-46" d="M533.62,165.91c3.9,1.35,5.75-2.16,5.49-5.38A5.93,5.93,0,0,0,533.62,165.91Z"/><path class="cls-47" d="M576,279.82c-.15.49-5.74,5.85-7.24,7.28a3.61,3.61,0,0,0-.62.78l-4.11,6.78a.8.8,0,0,0,0,.75h0a.8.8,0,0,0,1.29.23l4.23-4.16a.41.41,0,0,1,.69.4L569,296.7l-1.71,8.46a.91.91,0,0,0,.59,1l.06,0a.89.89,0,0,0,1.15-.56l3.29-9.43s-2,9-2.07,9.48.87.24,1-.11l3.53-8.28-3,7.53c-.17.43.68.33.68.33a1,1,0,0,0,.58-.44l4-7.07s-2.26,5.28-2.55,5.94.7.38.7.38a.9.9,0,0,0,.52-.42l3.62-6.38a1.66,1.66,0,0,0,.21-.79l.2-15.31Z"/><path class="cls-40" d="M560.51,198.83c-2-8.55,6.28-13.34,11.17-11.62,2.43.85,3.65,2.77,4.7,6a417.37,417.37,0,0,1,12.91,48.21c1.36,6.81-7.24,42.43-7.24,42.43l-11.78-2.92s2.11-38.64,1.82-39.72C569.15,230.5,562.17,206.09,560.51,198.83Z"/></g><path class="cls-32" d="M507.6,99.49c-6.86,11.52-2.66,24.48,13.15,29.24s29.09,1,27-8.81S536.83,110.4,522,109.7C510.35,109.16,507.6,99.49,507.6,99.49Z"/><path class="cls-32" d="M563.3,110.71s.66-8.91,3.94-11.07a33.19,33.19,0,0,0-2.81,8.72s3.94-3.19,7.5-3.37C571.37,107.14,563.3,110.71,563.3,110.71Z"/><ellipse class="cls-48" cx="542.36" cy="294.66" rx="8.8" ry="9.83"/><path class="cls-49" d="M658.18,106.17a5.64,5.64,0,1,1-5.63-5.63A5.64,5.64,0,0,1,658.18,106.17Z"/><circle class="cls-49" cx="679.97" cy="101.52" r="1.22"/><path class="cls-49" d="M683.67,203.92a1.33,1.33,0,1,1-1.33-1.32A1.32,1.32,0,0,1,683.67,203.92Z"/><path class="cls-49" d="M462.1,117.86a3.53,3.53,0,1,1-3.53-3.53A3.53,3.53,0,0,1,462.1,117.86Z"/><path class="cls-49" d="M421.94,221.14a2.21,2.21,0,1,1-2.21-2.21A2.2,2.2,0,0,1,421.94,221.14Z"/><circle class="cls-49" cx="122.89" cy="20.72" r="6.31"/><circle class="cls-49" cx="388.41" cy="3.69" r="3.15"/><circle class="cls-49" cx="4.32" cy="202.36" r="3.78"/><circle class="cls-49" cx="150.64" cy="132.98" r="1.89"/><circle class="cls-49" cx="284.98" cy="256.6" r="1.89"/><path class="cls-50" d="M45.56,190.35c25.73,6.52,51,19,77.6,21.54a107.35,107.35,0,0,0,57.68-10.65c20.57-10.23,39.72-27.58,62.64-26.1,21.55,1.39,38,19.06,57.63,28.16,16.74,7.77,37.52,8.83,53.05-1.15,13.26-8.51,20.79-23.39,31.52-34.92s19.9-17.4,39.76-13c0,0,1.46.08,2.28-4.64s-.91-5.09-.91-5.09c-11.59-5.68-18.7-15.62-23.41-30.21-7.3-22.66-6.65-31.5-12.67-45.61-3.68-8.63-8.24-17.31-15.77-22.91-11.25-8.35-26.68-8.09-40.44-5.47-21.78,4.15-42.32,13.19-63.77,18.82s-45.13,7.58-65.1-2.08c-13.66-6.61-24.5-18.15-38.28-24.51-15.12-7-32.64-7.14-49-3.9S86.56,38.33,71,44.19q-8.19,3.08-16.46,6C42.24,55.14,21.37,188.14,45.56,190.35Z"/><path class="cls-31" d="M92.75,150.67c1.75,1.27.94,3.49-.08,5.14-2.64,4.24-20.14,19.8-20.14,19.8l-5.19-7.8s14-14.68,15.91-16.72C85,149.22,90.09,148.73,92.75,150.67Z"/><path class="cls-31" d="M61.9,204c0,.39,3.09,6.4,3.09,6.4l0,6-.76.69-2-5.27-.69,4.25-1.34,6.09-1.13-.09.62-7.18-1.34,6.58-.52-.2.12-6.37-.22,5.76-.67-.53-.48-5.59-.06,4.79-.7-.62-.48-5.34,3.7-9.86Z"/><path class="cls-31" d="M70,167.56c2.46,1.22,3.82,4.77,3,8.14L62.78,207.52l-4.51.32s3.23-16.76,5.87-30.27C65.81,169,67.05,166.09,70,167.56Z"/><path class="cls-31" d="M108.07,156.58c1.9-1,3.55.64,4.61,2.28,2.69,4.2,7.65,25.46,7.65,25.46l-7.69,2.57s-7.22-19-8.27-21.55C103.41,163,105.18,158.15,108.07,156.58Z"/><path class="cls-31" d="M128.78,210.09c.21.33,6.51,2.83,6.51,2.83l4,4.55-.13,1-4.94-2.69,2.25,3.67,3,5.49-.92.67-4.21-5.85,3.27,5.86-.52.19L133,220.92l3.59,4.51-.86,0-4-3.92,3.08,3.66-.93,0L130,221.46l-3.63-9.88Z"/><path class="cls-31" d="M114.41,181.85c2.61-1.64,4.43-.77,6,2.32l10.92,29.33-2.79,1.88s-6-9.56-12.76-21.51C111.47,186.31,111.59,183.63,114.41,181.85Z"/><path class="cls-51" d="M108.14,146.38c-1.42-.7-10,13.26-9.16,15.79,1.9,5.92,8.23,18.48,8.23,18.48l12.4-5.23s-4.3-13.73-5.24-17.37C113.31,153.9,111.6,148.08,108.14,146.38Z"/><path class="cls-52" d="M29.28,266.16a6.65,6.65,0,0,0-1.2,2.3,3,3,0,0,0,0,2.14s.64.07.65.1c-3.37,4.72-10.2,15.79-11.7,18.11,0,0,0,0,0-.11-.79,1.16-2.33,4.27-2.33,4.27s-1.79-.35-1.83-.86a80,80,0,0,1,3.78-14.28c3.31-7.47,6.51-14.24,6.51-14.24l2.73,1.15C26.61,264.89,28.07,265.69,29.28,266.16Z"/><path class="cls-6" d="M10.22,310c0,2.84,28.56,5.07,63.71,5s63.63-2.5,63.59-5.34-28.55-5.07-63.71-5S10.18,307.12,10.22,310Z"/><path class="cls-52" d="M116.41,305.86a8.25,8.25,0,0,0,4.5-2,3.7,3.7,0,0,0,.85-1.21c4.8-.31,16.22-2.53,18.59-2.92,0,0,0,0-.08.06l5.33-1s1.16,1.38.74,1.59c-.67.32-6.31,3.95-6.93,4.17-7,2.4-20.93,7.31-20.93,7.31L117.17,309A8.54,8.54,0,0,1,116.41,305.86Z"/><path class="cls-53" d="M104.52,262.85c-5.45-12.26-24-60.87-24-60.87-.19-7.67,21.84,1.37,21.84,1.37s8.85,42.63,10.84,52.91S106,266.06,104.52,262.85Z"/><path class="cls-53" d="M75.68,255.08,94.2,215.85S99,199.5,82.62,197.73c-6.08,1.28-7.39,12-8.37,14L63.71,251.94C65.51,254.72,73.16,256.39,75.68,255.08Z"/><path class="cls-53" d="M124.8,301.77l-12.11-49.2c-2.33-6.95-5.81-9-10.12-5.88-2.73,2-.27,9.52,2.75,19,3.89,12.2,10.34,39,10.34,39C119.59,304.67,123,304,124.8,301.77Z"/><path class="cls-53" d="M26.42,264.39l44.09-19.32c2.26.26,4.75.36,5,.7,1.07,1.75,1.84,3,1.63,4.75-.68,5.91-2.35,5.76-6.08,7.31l-42.47,15.6C28.27,273.18,23.89,268.05,26.42,264.39Z"/><path class="cls-54" d="M92.41,143.14c3.55-1,7.76.34,11.34,1s4.69,2.34,6.31,4.94c1.2,1.92,2.15,6.51.85,15.43s-3.92,40.55-4.76,44.37C100,215.06,77,211.75,71.79,206.1c8.11-31.37,7.48-42,11.57-51.53C86.44,147.42,87.87,144.4,92.41,143.14Z"/><path class="cls-51" d="M94.44,146.39c-2.93-3.75-7.78-2.7-12.4,1.4-5.45,4.85-13.35,15.3-13.35,15.3l7.88,10.31s12.59-11.18,15.31-13.9S97.38,150.14,94.44,146.39Z"/><path class="cls-55" d="M105.28,146.32l1.39-9.95L97.45,133l-2,11.17C97,146.37,102.28,149,105.28,146.32Z"/><path class="cls-56" d="M122.32,100.7c1.79,3.64-1.61,12.52-1.61,12.52s-13.15-2.09-17.38-1.94S96,122,92.51,131c-4.23,3.52-12.74-7-8.81-19.23-1.17,2-2.34,2-2.34,2s-1.55-4.46,3.72-8c-2.94,1.08-3.76,1-3.76,1a6.17,6.17,0,0,1,4.92-2.5c.8-5.18,1.49-6.71,3.37-8.13a16.07,16.07,0,0,1-.57,4s2.09-4.48,10.08-6.17,9.29-.41,9.29-.41a7.76,7.76,0,0,1-4.23,1.2C111.47,95,117,96.38,122.32,100.7Z"/><path class="cls-31" d="M121.41,119.72c-2.35,11.54-2,15.6-4.54,18.58-2.38,2.8-8.44,6.13-19.88.62-5.51-2.65-5.82-10.38-5.82-10.38a4.55,4.55,0,0,1-2.75-.06,3.36,3.36,0,0,1-2-4.13c.83-3,2.42-3.64,3.66-3.73,2.21-.15,3.21,2.12,3.21,2.12a63.57,63.57,0,0,1,2-7.52c1.15-3.12,2.34-7.32,14.62-4.85,3.78.76,8.94,1.48,10.76,2.85S122,116.62,121.41,119.72Z"/><path class="cls-56" d="M127.09,99a9.82,9.82,0,0,0-8-2.2c1,.52,1,2.1.36,3-3,4.13-7.54,1.56-11.34.7a13.58,13.58,0,0,0-11.32,2.59,15.09,15.09,0,0,0-4.57,6.63c.47-.16,1-.31,1.44-.44,3.48-.89,6.82.48,12.22,3.9,5.82,3.68,13.43,5.15,19.61,1.63C131.45,111.38,132.94,103.94,127.09,99Z"/><path class="cls-56" d="M93.53,119.43c-1.79,3.34-1.28,7.28.11,8.87C95.5,125,93.53,119.43,93.53,119.43Z"/><path class="cls-41" d="M110.72,125.55a4.76,4.76,0,0,1,1.8-.29,2.13,2.13,0,0,1,1.7.79,1.06,1.06,0,0,1,0,1,2,2,0,0,1-.64.7,5,5,0,0,1-1.69.69,8,8,0,0,0,1.53-.89,2.1,2.1,0,0,0,.53-.63.74.74,0,0,0,0-.71,2,2,0,0,0-1.44-.71A7.09,7.09,0,0,0,110.72,125.55Z"/><path class="cls-57" d="M110.94,117.53c0,1.44.2,6.44-3.84,6.64s-2.35-5.42-2.35-5.42A52.69,52.69,0,0,1,110.94,117.53Z"/><path class="cls-58" d="M110.16,117.26c-4.62.15-7.35,1.9-4.43,2S113.2,117.15,110.16,117.26Z"/><path class="cls-59" d="M115.38,118.24c-.62,1-1.74,5.44,1,6.83s3.36-6.36,3.36-6.36S116.63,118.9,115.38,118.24Z"/><path class="cls-58" d="M115.92,117.79c3.43-.2,5.81,1.41,2.66,1.4S114.13,117.89,115.92,117.79Z"/><path class="cls-60" d="M102.1,130.56c-1.07,2.26.14,5.35,1.8,5.78,2.56.66,2.15-2.12,4.73-3C108.63,133.34,104.24,132.41,102.1,130.56Z"/><path class="cls-61" d="M117.88,123.22c-.07.52-.3.93-.51.91s-.33-.44-.26-.95.3-.93.51-.92S118,122.7,117.88,123.22Z"/><path class="cls-61" d="M108.67,122.77c0,.51-.2.94-.42,1s-.37-.4-.36-.92.21-.94.42-1S108.69,122.25,108.67,122.77Z"/><rect class="cls-62" x="113.69" y="299.24" width="12.77" height="6.03" rx="1.54" transform="translate(338.02 543.66) rotate(159.59)"/><rect class="cls-62" x="22.11" y="265.16" width="12.77" height="6.03" rx="1.54" transform="translate(-229.3 347.4) rotate(-101.02)"/><path class="cls-63" d="M236.84,172.7c-2.24,1.77-1.42,6.28,0,9.84l11,25.28,2.81-4.24-7.42-25.81S240.23,170,236.84,172.7Z"/><path class="cls-64" d="M195.7,197.82c0,.38,3.54,6.15,3.54,6.15l.48,6-.71.74-2.37-5.1-.37,4.29-.9,6.17h-1.13l.09-7.2-.86,6.66-.53-.17-.33-6.36.19,5.76-.71-.48-.88-5.54.28,4.78-.73-.57-.87-5.29,3-10.1Z"/><path class="cls-64" d="M200.71,168.38c2.62.8,3.5,2.76,2,6.27-6.73,15.5-7.17,25.66-7.17,25.66l-3.16,1.61s-.19-15.28.79-22.82C194.28,170.47,196.13,167,200.71,168.38Z"/><path class="cls-65" d="M244,120.44c1.2,9.65-2.55,26.55-4.54,31.76-5.59-2.7-10.27-9.44-10.27-9.44L233.77,125Z"/><path class="cls-66" d="M242.6,143.05c-1.39-.75-6.58,2.77-6.34,5.41.16,1.77,1.16,26.69,1.16,26.69l6.73,3.45s3-21.72,3.24-25.48C247.68,147.92,245.59,144.68,242.6,143.05Z"/><path class="cls-6" d="M152.79,310c0,2.84,28.56,5.07,63.71,5s63.63-2.5,63.6-5.34-28.56-5.07-63.71-5S152.76,307.12,152.79,310Z"/><path class="cls-63" d="M163.54,265.77a7,7,0,0,0-1.2,2.3,3.09,3.09,0,0,0,0,2.14.28.28,0,0,0,0,.09c-3.37,4.72-7.77,10.45-9.27,12.77,0,0,0,0,0-.11-.79,1.16-2.33,4.27-2.33,4.27s-1.79-.35-1.83-.86a26,26,0,0,1,2-8.93c3.31-7.47,6.51-14.24,6.51-14.24l2.73,1.15C160.87,264.5,162.34,265.3,163.54,265.77Z"/><path class="cls-63" d="M238.82,260.12l-24.93-58.53c-.2-7.43,21.68,1.33,21.68,1.33l10.76,51.28C247.63,271.84,242.26,261.65,238.82,260.12Z"/><path class="cls-63" d="M208.22,255.13,227.43,215s4.75-15.86-11.5-17.57c-6,1.24-7.34,11.61-8.31,13.55l-11.13,44.43C198.27,258.14,205.72,256.41,208.22,255.13Z"/><path class="cls-63" d="M235.92,247.52c2-4,7.6-2.07,9.68,3.42L258,304.09l-5.79,1.26S239.05,270,237.44,263.16,234,251.54,235.92,247.52Z"/><path class="cls-63" d="M160.82,269.81c0-2.09,0-3.12.8-4.42L199.5,248.7c2.25.26,7.86-2.39,8.07-2.06,1.06,1.7,1.82,2.88,1.62,4.6-.68,5.73-2.34,5.59-6.05,7.09l-41.84,13A3.14,3.14,0,0,1,160.82,269.81Z"/><path class="cls-63" d="M251.63,303.4a8.25,8.25,0,0,0,4.49-2,3.6,3.6,0,0,0,.85-1.21c4.8-.31,11.45-.78,13.82-1.17,0,0,0,0-.09.06l5.34-1s1.15,1.38.73,1.59c-.67.32-6.3,3.95-6.92,4.17-7,2.39-16.16,5.56-16.16,5.56l-1.31-2.86A8.69,8.69,0,0,1,251.63,303.4Z"/><path class="cls-67" d="M157.46,263.18l2.73,1.15a2.72,2.72,0,0,1,.44.14c-1.79,1.94-3,4.93-4.12,6.85-2.25,3.92-4.26,7.77-3.58,11.92-.82,1.32-2.14,4-2.14,4s-1.79-.35-1.83-.86a26.24,26.24,0,0,1,2-8.92C154.26,270,157.46,263.18,157.46,263.18Z"/><path class="cls-67" d="M252.13,305.92c2.78-.48,5.54-1.14,8.27-1.87,3.82-1,8.17-2.15,10.84-5.12L276,298s1.16,1.39.74,1.59c-.67.32-6.3,4-6.93,4.17-7,2.4-16.15,5.57-16.15,5.57l-1.32-2.87A3.33,3.33,0,0,1,252.13,305.92Z"/><path class="cls-68" d="M218.13,139.57l14.92-.83,9.93,4.54c1.16,3.69,2.36,7.34,3,9.91s3.52,7.12,2.91,10a8.23,8.23,0,0,1-3.64,5.14c-1.19,3.17-2.78,6.59-4.18,10.83-2.66,8-4.29,14.43-4.29,14.43l-14.56-1.44c-1,.11-3.62,1.16-3.34-3.05.66-10.09-1.94-36.36-1.77-38.38C217.87,142.4,216.91,139.19,218.13,139.57Z"/><path class="cls-69" d="M231.85,141.61a6.71,6.71,0,0,1-3-2.41l2.4-23.26,8.11,1.29-.21,24.69C237.65,143.65,233.73,142.47,231.85,141.61Z"/><path class="cls-67" d="M218.94,183.53c8.78,5.82,19.85,3.06,19.85,3.06l8.62,58.93s-37.68,1.44-51.11-9.9c-.47-.39,4.27-26.62,14.29-43C214.94,185.58,218.94,183.53,218.94,183.53Z"/><path class="cls-68" d="M212.87,143.91c-.89,1.2-13.5,17-18,23.86,1.51,1.55,4.78,4.58,9.79,4.12,4.17-4.42,13.66-13.2,18.42-17.77s3.48-13.8,0-13.7C219.92,140.51,216.53,139,212.87,143.91Z"/><path class="cls-69" d="M241.32,142.45a17,17,0,0,1-3.39,11.9c-6.21-3.3-12.71-15.3-12.71-15.3l8.32-.17Z"/><path class="cls-70" d="M231.07,132.88c-.69-1-1.45-1.11-1.94-2.14l3.94-19.34,7.9,2.35-2.76,19.67C235.88,134.78,232.91,135.46,231.07,132.88Z"/><path class="cls-64" d="M229.82,134.9s16.41,4.22,19.14.2a8.25,8.25,0,0,0,1.07-3.46c.1-.58.4-2.92.45-3.53.51-5.61.21-12.81-1.82-17.31-3.34-7.42-14-16.77-21-13S207.58,114.28,229.82,134.9Z"/><path class="cls-64" d="M246.54,118.24l0,0,.24-1a48.36,48.36,0,0,0,7.51,4.61c-3.82,5.15-9.06,1.9-8.85-3.64a2.81,2.81,0,0,1,1.14.09C246.83,118.35,246.78,118.3,246.54,118.24Z"/><path class="cls-71" d="M241.23,100.43s1.08-3.21-5.67-4.13c-7.26-1-13.94-.53-19.78,7.8-3.07,4.38-4.27,11.05-2.36,20.71,1.22,6.2-2,20.84-14.52,26.66-3.71,4.43,8.64,11.81,13.23,11.11,1.46-.22,8.14-3.12,13.05-16.66a36.81,36.81,0,0,1-4.91,15.79c-.54.89,5.25-1.52,7.79-5,5.67-7.79,13.69-37.64,6.33-49.2C231.79,103.42,241.23,100.43,241.23,100.43Z"/><path class="cls-71" d="M230.54,108.38c2.84,4.58,23.86,4.42,22.13-6.65-1.49,6.33-5.59-3.55-15.21-5C234.77,96.29,228.29,104.76,230.54,108.38Z"/><path class="cls-72" d="M248.91,114.78c1.2,2.82,1.31,5.39-2.46,5.53s-2.21-4.67-2.21-4.67A31.3,31.3,0,0,1,248.91,114.78Z"/><path class="cls-73" d="M249.08,118.76a.52.52,0,0,1-.64.34.51.51,0,1,1,.64-.34Z"/><path class="cls-74" d="M247.88,114.71c-4.16.43-4.48,1.29-2.48,1.1C248.12,115.54,250.71,114.42,247.88,114.71Z"/><path class="cls-74" d="M243.35,127.64a2.29,2.29,0,0,0,.38,1,1.52,1.52,0,0,0,.76.66,3.34,3.34,0,0,0,2.14-.14c-.15.13-.32.24-.48.36a3.61,3.61,0,0,1-.57.24,1.91,1.91,0,0,1-1.27,0,1.79,1.79,0,0,1-.9-.92A1.62,1.62,0,0,1,243.35,127.64Z"/><path class="cls-63" d="M246.76,203.39c.25.34-.67,6.73-.67,6.73l-.38,6.8,1.18.29,1.6-6.08,3.69,4.38,3.67,5.16,1.21-.64-3.42-6.55,4.73,5.62.48-.45-3.28-6,4.12,3.55.49-.84-3.12-3.93,2.08,2,.25-.69-4.46-4.85-5.07-5.2Z"/><path class="cls-64" d="M325.63,147.23c1.76-2.45,4.86-1.33,7.17.09,5.92,3.65,24.71,30.48,24.71,30.48l-7.87,4.76S329.12,163,326.27,160.47C323.65,158.1,322.94,150.94,325.63,147.23Z"/><path class="cls-75" d="M335.87,172.5c-3.43-3.27-9-10.16-10-11-2.86-2.59-3.64-10.42-.7-14.49,1.93-2.67,6.09-3.33,7.9-2.59,4.34,1.77,11.18,12.9,14.28,18.39C344.05,166.36,336,172.42,335.87,172.5Z"/><path class="cls-64" d="M376.67,166.34c.38-.26,3.21-7.69,3.21-7.69l5.27-4.72,1.19.13-3.07,5.85,4.26-2.7,6.4-3.57.79,1.06-6.78,5,6.82-3.94.23.62-5.69,4.84,5.23-4.29.06,1-4.54,4.77,4.25-3.67v1.09L390,164.75l-11.16,4.53Z"/><path class="cls-64" d="M349,181.51c-.59-3,1.47-7,5.07-8.84l26.54-9.37,2.24,3.23L361.6,181.17S349.91,186.05,349,181.51Z"/><path class="cls-6" d="M291.6,308.24c0,3.76,19.2,6.73,42.83,6.62s42.76-3.24,42.73-7-19.19-6.72-42.82-6.62S291.58,304.48,291.6,308.24Z"/><path class="cls-76" d="M356,304.74s-12.68-5.35-15.72-6.71-7.57-2.63-9.11-1.24-1.17,5.54-1.17,5.54,13.41,6,17.83,6.42c2.82.26,8.89-1.73,8.89-1.73Z"/><path class="cls-77" d="M342.38,194.78,339,297.22l-7.84-1.49L328,194.59C329.73,194.7,341.34,194.73,342.38,194.78Z"/><path class="cls-78" d="M340.66,292.41s0,2.78,0,5.16-10.68.07-10.68.07l-.71-5.05S342,291.81,340.66,292.41Z"/><path class="cls-76" d="M343.32,310.86s-12.45-6.88-15.43-8.61-7.48-3.47-9.14-2-1.58,6.19-1.58,6.19,13.14,7.67,17.59,8.41c2.83.47,9.13-1.38,9.13-1.38Z"/><path class="cls-79" d="M334.29,196.87l-7.57,101.84-7.8-1.64-5-98.67C315.63,198.55,333.25,196.81,334.29,196.87Z"/><path class="cls-78" d="M328.15,296s0,3.15-.11,5.85-10.83-.14-10.83-.14l-.6-5.74S329.52,295.36,328.15,296Z"/><path class="cls-80" d="M324,141.82A17.26,17.26,0,0,1,339.53,154c3.06,9,6.82,46.15,6.07,52.94a51.87,51.87,0,0,1-35.69,0c3.07-33.35,1.54-40.83,1.74-53.95C311.78,144.54,321,141.64,324,141.82Z"/><path class="cls-81" d="M329,141.3l0,3.49a4.59,4.59,0,0,1-3.74,1.56,5.58,5.58,0,0,1-3.87-1.2l-.19-4Z"/><path class="cls-64" d="M317.1,151.28c2.12.43,2.3,2.78,2,4.71-.63,4.95-10.1,26.37-10.1,26.37l-8-4.94s6.7-19.19,7.54-21.81C309.4,153.2,313.87,150.62,317.1,151.28Z"/><path class="cls-64" d="M311.17,212.6c.11.37,5.46,4.53,5.46,4.53l2.54,5.47-.4.94-4-4,1.13,4.15,1.32,6.1-1.07.39-2.42-6.79,1.52,6.54-.56,0-2.53-5.84,2.19,5.33-.84-.2-2.75-4.89,1.93,4.38-.89-.28-2.66-4.65-.73-10.51Z"/><path class="cls-64" d="M303.45,176.08c2.74.08,5.45,2.75,6.09,6.15l3.89,33.21-4,2.16s-4-16.59-7.22-30C300.21,179.17,300.12,176,303.45,176.08Z"/><path class="cls-75" d="M316.86,146.68c-4.23-2.19-8.21.78-10.7,6.42a151.91,151.91,0,0,0-5.68,16.32l12.7,6.77s5.44-12.92,6.79-16.52S321.08,148.87,316.86,146.68Z"/><path class="cls-82" d="M338.11,114.62c-5-.46-11.58-1-15.56-.2s-5.39,11.21-7.37,20.17c-3.49,3.93-13.05-4.75-11.11-16.89-.81,2.06-1.92,2.24-1.92,2.24s-2.11-4,2.35-8.11c-2.61,1.44-3.41,1.45-3.41,1.45a5.88,5.88,0,0,1,4.29-3.07c0-5,.44-6.56,2-8.17a14.9,14.9,0,0,1,.05,3.86s2.66-8.56,13.52-7.27c11.33,2.06,19.27-1.1,20.6-3.87-.47,6.12-3.06,8.22-3.06,8.22s7.94-3.82,7.65-12.33c3.25,14-.67,16.92-.67,16.92s4.21-3.35,5.07-5.64c1.15,6-5.45,10.71-7,11.57a13.9,13.9,0,0,0,4.4-1.63S347.41,115.49,338.11,114.62Z"/><path class="cls-64" d="M340.85,119.78c-.55,11.24.36,15-1.6,18.2-1.84,3-7.09,7-18.68,3.47-5.6-1.71-7-9-7-9a4.34,4.34,0,0,1-2.6.34,3.21,3.21,0,0,1-2.5-3.62c.35-3,1.76-3.79,2.92-4.05a3.41,3.41,0,0,1,3.34,1.54,60.36,60.36,0,0,1,.84-7.39c.63-3.12,1.15-7.26,13.11-6.71,3.68.17,8.66.11,10.58,1.14S341,116.76,340.85,119.78Z"/><path class="cls-41" d="M333,126a4.46,4.46,0,0,1,1.66-.46,2.22,2.22,0,0,1,1.69.5,1,1,0,0,1,.27.91,1.57,1.57,0,0,1-.18.44,3.31,3.31,0,0,1-.3.34,4.16,4.16,0,0,1-1.5.85,6.13,6.13,0,0,0,1.33-1c.37-.39.55-1,.16-1.31a2.11,2.11,0,0,0-1.47-.48A6.82,6.82,0,0,0,333,126Z"/><path class="cls-41" d="M324,133.13a2.07,2.07,0,0,0,.67,1.69,3,3,0,0,0,1.6.86,5.92,5.92,0,0,0,1.88.07c.64-.07,1.27-.21,1.92-.34-.3.14-.6.26-.91.39s-.63.19-1,.25a5.48,5.48,0,0,1-2,0,3.13,3.13,0,0,1-1.74-1A1.93,1.93,0,0,1,324,133.13Z"/><path class="cls-83" d="M331.05,119.12c.28,1.34,1.34,5.26-2.44,5.86s-3.23-4.07-3.23-4.07A50.55,50.55,0,0,1,331.05,119.12Z"/><path class="cls-82" d="M330.21,118.94c-4.34.63-6.61,2.55-3.83,2.32S333.08,118.52,330.21,118.94Z"/><path class="cls-84" d="M330.58,125c-.6-1.53-2.24-1.36-2.81.17"/><path class="cls-85" d="M336.07,119.07c-.22,1.06-.93,4.89,2.06,5.35s2.45-4.26,2.45-4.26S337.43,119.31,336.07,119.07Z"/><path class="cls-82" d="M336.78,118.87c3.25.15,5.47,1.92,2.49,1.59S335.08,118.8,336.78,118.87Z"/><path class="cls-84" d="M339.11,124.15c-.75-1.77-2.68-1.25-2.72.22"/><path class="cls-82" d="M314.47,123.54c-1.2,3.41-.15,7.06,1.39,8.36C317.14,128.54,314.47,123.54,314.47,123.54Z"/><path class="cls-82" d="M315.7,115.29c1.36-1,6.65-2.63,12.11-.17,7.16,3.24,12.81,2.22,12.6-1.75S321,108.64,315.7,115.29Z"/><rect class="cls-86" x="229.6" y="48.56" width="55.54" height="36.39" rx="3.18"/><path class="cls-86" d="M253.88,84.67,255,91.85a.7.7,0,0,0,1.23.34l6.33-7.52Z"/><path class="cls-19" d="M262.84,56.94A6.39,6.39,0,0,0,257.37,60a6.38,6.38,0,0,0-11.84,3.29c0,8.2,11.84,13.24,11.84,13.24s11.85-6,11.85-13.24A6.38,6.38,0,0,0,262.84,56.94Z"/><rect class="cls-86" x="112.43" y="58.15" width="38.13" height="24.98" rx="2.18"/><path class="cls-86" d="M129.1,83l.77,4.93a.49.49,0,0,0,.85.24L135.06,83Z"/><path class="cls-19" d="M135.25,63.91A4.37,4.37,0,0,0,131.5,66a4.39,4.39,0,0,0-8.14,2.26c0,5.63,8.14,9.09,8.14,9.09s8.13-4.12,8.13-9.09A4.38,4.38,0,0,0,135.25,63.91Z"/><rect class="cls-86" x="297.97" y="16.48" width="14.49" height="9.49" rx="0.83"/><path class="cls-86" d="M304.3,25.9l.29,1.87a.19.19,0,0,0,.33.09l1.65-2Z"/><path class="cls-19" d="M306.64,18.67a1.67,1.67,0,0,1-2.85,0,1.66,1.66,0,0,0-1.67,1.66c0,2.14,3.09,3.45,3.09,3.45s3.09-1.56,3.09-3.45A1.66,1.66,0,0,0,306.64,18.67Z"/><rect class="cls-86" x="340.78" y="63.13" width="36.12" height="23.67" rx="2.07"/><path class="cls-86" d="M356.57,86.62l.73,4.67a.46.46,0,0,0,.81.22l4.11-4.89Z"/><path class="cls-19" d="M356.7,74.37a4.43,4.43,0,0,1,1.46-2.86,5.29,5.29,0,0,0,1.37-2.77c0-.78-.35-1.89.52-2.39s2.45.15,2.57,2-.15,2.53-.44,2.94,0,.41.32.41h3.27a1.43,1.43,0,0,1,1.45,1.4,1.77,1.77,0,0,1-.4,1.11,1.65,1.65,0,0,1,.58,1.4,1.18,1.18,0,0,1-.82,1.22,1.66,1.66,0,0,1-.81,2,1.57,1.57,0,0,1-1.46,1.9h-5.16c-1.49,0-2.48-.59-2.48-1.4S356.7,75.1,356.7,74.37Z"/><path class="cls-19" d="M351.9,73h3.28a.41.41,0,0,1,.41.41v7.69a.41.41,0,0,1-.41.41H351.9a.19.19,0,0,1-.19-.19V73.16A.19.19,0,0,1,351.9,73Z"/><rect class="cls-86" x="186.83" y="6.33" width="27.02" height="17.7" rx="1.55"/><path class="cls-86" d="M198.64,23.9l.55,3.49a.34.34,0,0,0,.6.17l3.08-3.66Z"/><path class="cls-19" d="M198.74,14.74a3.31,3.31,0,0,1,1.09-2.14,3.92,3.92,0,0,0,1-2.07c0-.59-.26-1.42.4-1.79s1.83.11,1.91,1.51-.1,1.89-.32,2.2,0,.3.24.3h2.44a1.08,1.08,0,0,1,1.09,1.05,1.33,1.33,0,0,1-.3.83,1.23,1.23,0,0,1,.43,1,.88.88,0,0,1-.61.91,1.25,1.25,0,0,1-.61,1.53,1.17,1.17,0,0,1-1.09,1.42h-3.86c-1.11,0-1.86-.44-1.86-1.05S198.74,15.28,198.74,14.74Z"/><path class="cls-19" d="M195.2,13.69h2.3a.41.41,0,0,1,.41.41v5.55a.41.41,0,0,1-.41.41h-2.3a.19.19,0,0,1-.19-.19v-6A.19.19,0,0,1,195.2,13.69Z"/></g></g></g></svg>