<svg xmlns="http://www.w3.org/2000/svg" xmlns:xlink="http://www.w3.org/1999/xlink" viewBox="0 0 2803.17 2000.8"><defs><style>.cls-1{mask:url(#mask);filter:url(#luminosity-noclip-6);}.cls-10,.cls-2,.cls-4,.cls-6,.cls-8{mix-blend-mode:multiply;}.cls-2{fill:url(#linear-gradient);}.cls-3{mask:url(#mask-2);filter:url(#luminosity-noclip-7);}.cls-4{fill:url(#linear-gradient-2);}.cls-5{mask:url(#mask-3);filter:url(#luminosity-noclip-8);}.cls-6{fill:url(#linear-gradient-3);}.cls-7{mask:url(#mask-4);filter:url(#luminosity-noclip-9);}.cls-8{fill:url(#linear-gradient-4);}.cls-9{mask:url(#mask-5);filter:url(#luminosity-noclip-10);}.cls-10{fill:url(#linear-gradient-5);}.cls-11{isolation:isolate;}.cls-12{fill:#fafafa;}.cls-13{mask:url(#mask-6);}.cls-14{fill:url(#linear-gradient-6);}.cls-15{fill:url(#linear-gradient-7);}.cls-16{fill:url(#linear-gradient-8);}.cls-17{fill:url(#linear-gradient-9);}.cls-18{fill:url(#linear-gradient-10);}.cls-19{fill:url(#linear-gradient-11);}.cls-20{fill:#587aa3;}.cls-21{fill:#4f6d91;}.cls-22{fill:#a3cdff;opacity:0.98;}.cls-22,.cls-23{mix-blend-mode:screen;}.cls-23{fill:#6bb0ff;opacity:0.73;}.cls-24{fill:url(#linear-gradient-12);}.cls-25{fill:url(#linear-gradient-13);}.cls-26{fill:url(#linear-gradient-14);}.cls-27{fill:url(#linear-gradient-15);}.cls-28{fill:#3788cc;}.cls-29{fill:#4aafff;}.cls-30{fill:#d8e7ff;}.cls-31{mask:url(#mask-7);}.cls-32{fill:url(#linear-gradient-16);}.cls-33{fill:#d6985e;}.cls-34{fill:#eea886;}.cls-35{fill:#528a35;}.cls-36{fill:#202338;}.cls-37{fill:#292c47;}.cls-38{fill:#3d416b;}.cls-39{fill:#cfbeb6;}.cls-40{fill:#754836;}.cls-41{fill:#a77860;}.cls-42{fill:#c98462;}.cls-43{fill:#de9d7d;}.cls-44{fill:#eddad3;}.cls-45{fill:#323657;}.cls-46{fill:#61a23e;}.cls-47{fill:#375c23;}.cls-48{fill:#424240;}.cls-49{fill:#807066;}.cls-50{fill:#6e6760;}.cls-51{fill:#918880;}.cls-52{fill:#bc8551;}.cls-53{fill:#757d28;}.cls-54{fill:#5c9e33;}.cls-55{fill:#4d8b33;}.cls-56{fill:#b1c265;}.cls-57{fill:#92a05b;}.cls-58{fill:#c7ca7f;}.cls-59{fill:#518330;}.cls-60{fill:#6c9f44;}.cls-61{fill:#4a8a33;}.cls-62{fill:#689c2f;}.cls-63{fill:#478b33;}.cls-64{fill:#5c9b3b;}.cls-65{fill:#31535f;}.cls-66{fill:#27434c;}.cls-67{mask:url(#mask-8);}.cls-68{fill:url(#linear-gradient-17);}.cls-69{mask:url(#mask-9);}.cls-70{fill:url(#linear-gradient-18);}.cls-71{mask:url(#mask-10);}.cls-72{fill:url(#linear-gradient-19);}.cls-73{fill:#fff;}.cls-74{fill:#d6d6d6;}.cls-75{fill:#e8e8e8;}.cls-76{fill:#c2c2c2;}.cls-77{fill:url(#linear-gradient-20);}.cls-78{fill:url(#linear-gradient-21);}.cls-79{fill:#1a598c;}.cls-80{fill:#2273b5;}.cls-81{fill:url(#linear-gradient-22);}.cls-82{fill:url(#linear-gradient-23);}.cls-83{fill:url(#linear-gradient-24);}.cls-84{fill:url(#linear-gradient-25);}.cls-85{fill:url(#linear-gradient-26);}.cls-86{fill:#353a3d;}.cls-87{fill:#81807e;}.cls-88{fill:#2d3133;}.cls-89{fill:#decbc4;}.cls-90{fill:#495055;}.cls-91{fill:#252e3b;}.cls-92{fill:#3c4145;}.cls-93{fill:#b3a5a0;}.cls-94{fill:#51565c;}.cls-95{fill:#f5e2d9;}.cls-96{fill:#4754cc;}.cls-97{fill:#ad9f99;}.cls-98{fill:#69737a;}.cls-99{filter:url(#luminosity-noclip-5);}.cls-100{filter:url(#luminosity-noclip-4);}.cls-101{filter:url(#luminosity-noclip-3);}.cls-102{filter:url(#luminosity-noclip-2);}.cls-103{filter:url(#luminosity-noclip);}</style><filter id="luminosity-noclip" x="0.01" y="-9192" width="2803.16" height="32766" filterUnits="userSpaceOnUse" color-interpolation-filters="sRGB"><feFlood flood-color="#fff" result="bg"/><feBlend in="SourceGraphic" in2="bg"/></filter><mask id="mask" x="0.01" y="-9192" width="2803.16" height="32766" maskUnits="userSpaceOnUse"><g class="cls-103"/></mask><linearGradient id="linear-gradient" x1="1401.59" y1="166.6" x2="1401.59" y2="1637.24" gradientUnits="userSpaceOnUse"><stop offset="0" stop-color="#fff"/><stop offset="1"/></linearGradient><filter id="luminosity-noclip-2" x="642.96" y="-9192" width="590.13" height="32766" filterUnits="userSpaceOnUse" color-interpolation-filters="sRGB"><feFlood flood-color="#fff" result="bg"/><feBlend in="SourceGraphic" in2="bg"/></filter><mask id="mask-2" x="642.96" y="-9192" width="590.13" height="32766" maskUnits="userSpaceOnUse"><g class="cls-102"/></mask><linearGradient id="linear-gradient-2" x1="938.03" y1="1640.6" x2="938.03" y2="2013.66" xlink:href="#linear-gradient"/><filter id="luminosity-noclip-3" x="1513.13" y="-9192" width="305.39" height="32766" filterUnits="userSpaceOnUse" color-interpolation-filters="sRGB"><feFlood flood-color="#fff" result="bg"/><feBlend in="SourceGraphic" in2="bg"/></filter><mask id="mask-3" x="1513.13" y="-9192" width="305.39" height="32766" maskUnits="userSpaceOnUse"><g class="cls-101"/></mask><linearGradient id="linear-gradient-3" x1="1633.93" y1="859.04" x2="2195.81" y2="1456.26" gradientUnits="userSpaceOnUse"><stop offset="0" stop-color="#fff"/><stop offset="0.15" stop-color="#d9d9d9"/><stop offset="1"/></linearGradient><filter id="luminosity-noclip-4" x="1777.75" y="-9192" width="81.58" height="32766" filterUnits="userSpaceOnUse" color-interpolation-filters="sRGB"><feFlood flood-color="#fff" result="bg"/><feBlend in="SourceGraphic" in2="bg"/></filter><mask id="mask-4" x="1777.75" y="-9192" width="81.58" height="32766" maskUnits="userSpaceOnUse"><g class="cls-100"/></mask><linearGradient id="linear-gradient-4" x1="1645.65" y1="848.02" x2="2207.52" y2="1445.24" xlink:href="#linear-gradient"/><filter id="luminosity-noclip-5" x="1870.48" y="-9192" width="39.93" height="32766" filterUnits="userSpaceOnUse" color-interpolation-filters="sRGB"><feFlood flood-color="#fff" result="bg"/><feBlend in="SourceGraphic" in2="bg"/></filter><mask id="mask-5" x="1870.48" y="-9192" width="39.93" height="32766" maskUnits="userSpaceOnUse"><g class="cls-99"/></mask><linearGradient id="linear-gradient-5" x1="1644.38" y1="849.21" x2="2206.26" y2="1446.43" xlink:href="#linear-gradient"/><filter id="luminosity-noclip-6" x="0.01" y="851.44" width="2803.16" height="1149.36" filterUnits="userSpaceOnUse" color-interpolation-filters="sRGB"><feFlood flood-color="#fff" result="bg"/><feBlend in="SourceGraphic" in2="bg"/></filter><mask id="mask-6" x="0.01" y="851.44" width="2803.16" height="1149.36" maskUnits="userSpaceOnUse"><g class="cls-1"><polygon class="cls-2" points="2803.17 1153.97 2803.17 2000.8 0.01 2000.8 0.01 1070.99 106.44 1070.99 106.44 1238.57 279.45 1238.57 279.45 1028.29 415.99 1028.29 415.99 1116.76 486.98 1116.76 548.46 1055.31 618.4 1055.31 618.4 851.44 813.91 851.44 813.91 1153.97 1013.74 1153.97 1013.74 1226.85 1091.21 1226.85 1091.21 1116.83 1386.53 1116.83 1386.53 1238.57 1499.48 1238.57 1499.48 1070.99 1671.78 1070.99 1671.78 1321.06 1681.86 1321.06 1681.86 984.19 1833.61 984.19 1833.61 1070.99 1962.41 1070.99 1962.41 1238.57 2135.35 1238.57 2135.35 1028.29 2271.93 1028.29 2271.93 1116.76 2342.95 1116.76 2404.43 1055.31 2474.34 1055.31 2474.34 851.44 2669.82 851.44 2669.82 1153.97 2803.17 1153.97"/></g></mask><linearGradient id="linear-gradient-6" x1="1401.59" y1="166.6" x2="1401.59" y2="1637.24" gradientUnits="userSpaceOnUse"><stop offset="0" stop-color="#7dcdff"/><stop offset="1" stop-color="#fff"/></linearGradient><linearGradient id="linear-gradient-7" x1="-2513.12" y1="592.17" x2="-2406.57" y2="1053.88" gradientTransform="translate(2354.94 -1085.86) rotate(-28.23)" gradientUnits="userSpaceOnUse"><stop offset="0" stop-color="#fff"/><stop offset="1" stop-color="#f0f0e3"/></linearGradient><linearGradient id="linear-gradient-8" x1="-2556.67" y1="602.21" x2="-2450.12" y2="1063.93" gradientTransform="translate(2354.94 -1085.86) rotate(-28.23)" gradientUnits="userSpaceOnUse"><stop offset="0" stop-color="#5369e5"/><stop offset="1" stop-color="#4e74d6"/></linearGradient><linearGradient id="linear-gradient-9" x1="674.01" y1="562.68" x2="877.91" y2="884.97" gradientTransform="matrix(1, 0, 0, 1, 0, 0)" xlink:href="#linear-gradient-8"/><linearGradient id="linear-gradient-10" x1="334.37" y1="777.56" x2="538.27" y2="1099.84" gradientTransform="matrix(1, 0, 0, 1, 0, 0)" xlink:href="#linear-gradient-8"/><linearGradient id="linear-gradient-11" x1="853.87" y1="1025.08" x2="573.68" y2="725.15" gradientUnits="userSpaceOnUse"><stop offset="0" stop-color="#3a49a1"/><stop offset="1" stop-color="#4e74d6"/></linearGradient><linearGradient id="linear-gradient-12" x1="-2439.08" y1="838.17" x2="-2389.46" y2="1049.06" xlink:href="#linear-gradient-7"/><linearGradient id="linear-gradient-13" x1="778.57" y1="1095.42" x2="498.38" y2="795.5" gradientTransform="matrix(1, 0, 0, 1, 0, 0)" xlink:href="#linear-gradient-8"/><linearGradient id="linear-gradient-14" x1="673.73" y1="562.86" x2="877.63" y2="885.14" gradientTransform="matrix(1, 0, 0, 1, 0, 0)" xlink:href="#linear-gradient-8"/><linearGradient id="linear-gradient-15" x1="224.62" y1="1203.79" x2="440.66" y2="1203.79" gradientUnits="userSpaceOnUse"><stop offset="0" stop-color="#d5e4ff"/><stop offset="1" stop-color="#edfffe"/></linearGradient><filter id="luminosity-noclip-7" x="642.96" y="1775.62" width="590.13" height="49.42" filterUnits="userSpaceOnUse" color-interpolation-filters="sRGB"><feFlood flood-color="#fff" result="bg"/><feBlend in="SourceGraphic" in2="bg"/></filter><mask id="mask-7" x="642.96" y="1775.62" width="590.13" height="49.42" maskUnits="userSpaceOnUse"><g class="cls-3"><path class="cls-4" d="M1233.09,1800.33C1233.09,1814,1101,1825,938,1825S643,1814,643,1800.33s132.11-24.71,295.07-24.71S1233.09,1786.68,1233.09,1800.33Z"/></g></mask><linearGradient id="linear-gradient-16" x1="938.03" y1="1640.6" x2="938.03" y2="2013.66" xlink:href="#linear-gradient-6"/><filter id="luminosity-noclip-8" x="1513.13" y="760.11" width="305.39" height="262.16" filterUnits="userSpaceOnUse" color-interpolation-filters="sRGB"><feFlood flood-color="#fff" result="bg"/><feBlend in="SourceGraphic" in2="bg"/></filter><mask id="mask-8" x="1513.13" y="760.11" width="305.39" height="262.16" maskUnits="userSpaceOnUse"><g class="cls-5"><path class="cls-6" d="M1818.52,878.63a59.83,59.83,0,0,0-68.9-59.55,77.7,77.7,0,0,0-149.61-4.3c-1.16,0-2.32-.09-3.48-.09a83.39,83.39,0,0,0-14.44,165.52,31.86,31.86,0,0,0,48.81,20.67,83.37,83.37,0,0,0,139.13-62c0-.39,0-.77,0-1.16A60.25,60.25,0,0,0,1818.52,878.63Z"/></g></mask><linearGradient id="linear-gradient-17" x1="1633.93" y1="859.04" x2="2195.81" y2="1456.26" gradientUnits="userSpaceOnUse"><stop offset="0" stop-color="#7dcdff"/><stop offset="0.15" stop-color="#90d4ff"/><stop offset="1" stop-color="#fff"/></linearGradient><filter id="luminosity-noclip-9" x="1777.75" y="991.01" width="81.58" height="81.58" filterUnits="userSpaceOnUse" color-interpolation-filters="sRGB"><feFlood flood-color="#fff" result="bg"/><feBlend in="SourceGraphic" in2="bg"/></filter><mask id="mask-9" x="1777.75" y="991.01" width="81.58" height="81.58" maskUnits="userSpaceOnUse"><g class="cls-7"><path class="cls-8" d="M1859.34,1031.8A40.8,40.8,0,1,1,1818.55,991,40.79,40.79,0,0,1,1859.34,1031.8Z"/></g></mask><linearGradient id="linear-gradient-18" x1="1645.65" y1="848.02" x2="2207.52" y2="1445.24" xlink:href="#linear-gradient-6"/><filter id="luminosity-noclip-10" x="1870.48" y="1090.79" width="39.93" height="39.93" filterUnits="userSpaceOnUse" color-interpolation-filters="sRGB"><feFlood flood-color="#fff" result="bg"/><feBlend in="SourceGraphic" in2="bg"/></filter><mask id="mask-10" x="1870.48" y="1090.79" width="39.93" height="39.93" maskUnits="userSpaceOnUse"><g class="cls-9"><circle class="cls-10" cx="1890.45" cy="1110.75" r="19.97"/></g></mask><linearGradient id="linear-gradient-19" x1="1644.38" y1="849.21" x2="2206.26" y2="1446.43" xlink:href="#linear-gradient-6"/><linearGradient id="linear-gradient-20" x1="1211.83" y1="1298.94" x2="1211.83" y2="948.44" gradientUnits="userSpaceOnUse"><stop offset="0" stop-color="#fff"/><stop offset="1" stop-color="#e3eaf0"/></linearGradient><linearGradient id="linear-gradient-21" x1="1154.58" y1="624.11" x2="1154.58" y2="399.89" xlink:href="#linear-gradient-20"/><linearGradient id="linear-gradient-22" x1="1023.59" y1="991.79" x2="1111.68" y2="991.79" gradientUnits="userSpaceOnUse"><stop offset="0" stop-color="#d5e4ff"/><stop offset="1" stop-color="#b5c2d9"/></linearGradient><linearGradient id="linear-gradient-23" x1="1238.54" y1="991.79" x2="1290.35" y2="991.79" xlink:href="#linear-gradient-22"/><linearGradient id="linear-gradient-24" x1="1054.38" y1="440.01" x2="1180.62" y2="440.01" xlink:href="#linear-gradient-22"/><linearGradient id="linear-gradient-25" x1="1073" y1="468.61" x2="1180.62" y2="468.61" xlink:href="#linear-gradient-22"/><linearGradient id="linear-gradient-26" x1="1007.57" y1="497.2" x2="1180.62" y2="497.2" xlink:href="#linear-gradient-22"/></defs><title>Ресурс 1</title><g class="cls-11"><g id="Слой_2" data-name="Слой 2"><g id="Слой_1-2" data-name="Слой 1"><rect class="cls-12" width="2803.15" height="2000.77"/><g class="cls-13"><polygon class="cls-14" points="2803.17 1153.97 2803.17 2000.8 0.01 2000.8 0.01 1070.99 106.44 1070.99 106.44 1238.57 279.45 1238.57 279.45 1028.29 415.99 1028.29 415.99 1116.76 486.98 1116.76 548.46 1055.31 618.4 1055.31 618.4 851.44 813.91 851.44 813.91 1153.97 1013.74 1153.97 1013.74 1226.85 1091.21 1226.85 1091.21 1116.83 1386.53 1116.83 1386.53 1238.57 1499.48 1238.57 1499.48 1070.99 1671.78 1070.99 1671.78 1321.06 1681.86 1321.06 1681.86 984.19 1833.61 984.19 1833.61 1070.99 1962.41 1070.99 1962.41 1238.57 2135.35 1238.57 2135.35 1028.29 2271.93 1028.29 2271.93 1116.76 2342.95 1116.76 2404.43 1055.31 2474.34 1055.31 2474.34 851.44 2669.82 851.44 2669.82 1153.97 2803.17 1153.97"/></g><path class="cls-15" d="M770.69,635.09c-47.83-26.56-108.24-35.49-170-24.63A329,329,0,0,0,422,706.38c-43.18,45.47-69.13,100.76-73.43,155.3-2.84,36.1,3.79,71.87,21.18,104.26a183.48,183.48,0,0,0,49.51,58.35c47.2,36.64,112.37,52.23,180.34,43.83A327.09,327.09,0,0,0,804,958.39c44.56-52,67.58-114.94,63.12-174.53a183.37,183.37,0,0,0-21.26-73.51C828.5,678,802.36,652.66,770.69,635.09ZM721.43,903.9a185.41,185.41,0,0,1-121.6,65.27c-39.91,4.14-77.83-6.3-104.2-29.46a103.84,103.84,0,0,1-23.07-29c-11-20.42-14.4-43.2-11.3-66,4-29.74,19.22-59.47,43.34-83.91a187.16,187.16,0,0,1,95.85-51.44c33.69-6.6,66.85-2.82,93.87,10.24,20.7,10,37.79,25.47,48.75,45.89a103.53,103.53,0,0,1,11.38,35.22C759.19,835.55,746.93,872.93,721.43,903.9Z"/><path class="cls-16" d="M804,958.39a327.09,327.09,0,0,1-204.44,109.73l.24-98.95a185.41,185.41,0,0,0,121.6-65.27Z"/><path class="cls-17" d="M845.89,710.35a183.37,183.37,0,0,1,21.26,73.51l-112.7,16.91a103.53,103.53,0,0,0-11.38-35.22c-11-20.42-28.05-35.88-48.75-45.89l76.37-84.57C802.36,652.66,828.5,678,845.89,710.35Z"/><path class="cls-18" d="M472.56,910.75a103.84,103.84,0,0,0,23.07,29l-76.38,84.58a183.48,183.48,0,0,1-49.51-58.35c-17.39-32.39-24-68.16-21.18-104.26l112.7-16.91C458.16,867.55,461.6,890.33,472.56,910.75Z"/><path class="cls-19" d="M600.68,610.46l-.23,99a187.16,187.16,0,0,0-95.85,51.44L422,706.38a329,329,0,0,1,178.69-95.92Z"/><rect class="cls-20" x="518.85" y="721.19" width="434.49" height="1008.52" rx="44.7" transform="translate(1472.19 2450.89) rotate(180)"/><path class="cls-21" d="M1014.8,761.24v930a49.08,49.08,0,0,1-49.09,49.09H550.48a49.07,49.07,0,0,1-49-49.09v-930c0-.82,0-1.59.05-2.4a49.06,49.06,0,0,1,49-46.69H965.71A49.08,49.08,0,0,1,1014.8,761.24Z"/><rect class="cls-22" x="537.49" y="721.19" width="469.76" height="1008.52" rx="46.48" transform="translate(1544.74 2450.89) rotate(180)"/><path class="cls-23" d="M972,765.89V1685a44.67,44.67,0,0,1-44.69,44.67H582.19a44.69,44.69,0,0,1-44.7-44.67V765.89a44.7,44.7,0,0,1,44.7-44.7H927.28A44.68,44.68,0,0,1,972,765.89Z"/><path class="cls-24" d="M867.18,783.87a183.57,183.57,0,0,0-20.39-71.72h-172a126.6,126.6,0,0,1,19.52,7.49c20.7,10,37.77,25.49,48.73,45.93a103.32,103.32,0,0,1,11.42,35.22c4.69,34.76-7.54,72.13-33,103.12a185.43,185.43,0,0,1-121.62,65.25c-37.06,3.82-72.44-4.84-98.38-24.73V1063c30.74,7.49,64.12,9.33,98.17,5.15A327.15,327.15,0,0,0,804,958.4C848.57,906.36,871.61,843.46,867.18,783.87Z"/><path class="cls-25" d="M804,958.39a327.09,327.09,0,0,1-204.44,109.73l.24-98.95a185.41,185.41,0,0,0,121.6-65.27Z"/><path class="cls-26" d="M867.18,783.87,754.47,800.79a103.32,103.32,0,0,0-11.42-35.22c-11-20.44-28-35.89-48.73-45.93l6.78-7.49H846.79A183.57,183.57,0,0,1,867.18,783.87Z"/><path class="cls-27" d="M378.82,1106.17a108,108,0,1,0-92.37,195.24c2.19,1,4.41,2,6.64,2.88a108,108,0,0,0,85.73-198.12Zm27,132.25A80.85,80.85,0,0,1,303,1279.13c-1.67-.66-3.34-1.38-5-2.15a81,81,0,1,1,107.82-38.56Z"/><path class="cls-28" d="M260.92,1241.38,237,1253.93a108.11,108.11,0,0,1,17-124.2l19.67,18.53a81.1,81.1,0,0,0-12.76,93.12Z"/><path class="cls-29" d="M303,1279.13l-9.9,25.16c-2.23-.88-4.45-1.84-6.64-2.88A107.58,107.58,0,0,1,237,1253.93l23.94-12.55A80.65,80.65,0,0,0,298,1277C299.65,1277.75,301.32,1278.47,303,1279.13Z"/><rect class="cls-30" x="160.09" y="1395.69" width="55.38" height="14.92"/><rect class="cls-30" x="160.09" y="1425.53" width="55.38" height="14.92"/><rect class="cls-30" x="160.09" y="1365.85" width="55.38" height="14.92"/><g class="cls-31"><path class="cls-32" d="M1233.09,1800.33C1233.09,1814,1101,1825,938,1825S643,1814,643,1800.33s132.11-24.71,295.07-24.71S1233.09,1786.68,1233.09,1800.33Z"/></g><path class="cls-33" d="M2006.35,1581.57s-.16-16.83,22.92-18c26.5-1.35,198.87-2.54,198.87-2.54l-1.15,17.91Z"/><path class="cls-34" d="M1892.36,1498.51c-.63-2.6-.3-6.62,7.83-11.17s26.28-17.66,32.51-18,15.71,2,18.23,1.91,7.39,16.72,7.39,16.72Z"/><polygon class="cls-35" points="2109.53 1333.1 2055.17 1439.87 1943.64 1468.52 1954.44 1496.75 2074.31 1488.24 2133.12 1390.32 2109.53 1333.1"/><path class="cls-36" d="M1779.16,1766.45s-24.94,10.49-36.09,14.13-51.94-.45-56.47,2.81-4.72,15.6,1.84,17.76,55.29,13.37,72.29,11.77,46.89,9.09,54,7.7,7.76-38.75,6.25-47.36S1779.16,1766.45,1779.16,1766.45Z"/><path class="cls-37" d="M1784.9,1751.48l-5.74,15s30.06,10,41.85,6.81L1825,1758Z"/><path class="cls-37" d="M1846.4,1779.77s-23.53,13.37-34.16,18.31-51.63,5.7-55.74,9.47-2.84,16,3.92,17.42,56.49,6.72,73.18,3.12,47.64,3.47,54.56,1.25,3.12-39.39.6-47.76S1846.4,1779.77,1846.4,1779.77Z"/><path class="cls-38" d="M1849.91,1764.21l-3.51,15.56s31,6.35,42.36,1.81l2.11-15.63Z"/><path class="cls-36" d="M2085.7,1484.05s-107.27.88-120.42,2.61c-14.25,1.88-68.16,2.44-74.9,12-68,96.23-114.32,254.91-114.32,254.91l53.76,9.87s52-93.92,73.76-142.71c19.56-43.8,36.29-55.06,77.35-54.1s172.37-7.46,248.08-16.21Z"/><path class="cls-39" d="M2062.51,1264.64s-10.52,46.16-8,71.6,43.19,89.23,45.12,103.4-9.18,43.46-9.18,43.46l140.58,65.08a884,884,0,0,0-6-89c-5.78-48.3-24-86.53-30.35-113.83-21.74-93.15-101.27-106.1-101.27-106.1Z"/><path class="cls-37" d="M2091,1481.83s-110.47.88-123.62,2.62c-14.26,1.88-71.33,2.78-76.81,13.09-39,73.37-47.73,269.21-47.73,269.21l50.15,5.65s24.63-99.39,32.36-146.73,17.39-54.22,58.45-53.26,201.88,43.79,247.31-24.23Z"/><path class="cls-34" d="M1956.2,1190.45s1.31,28.3,9,28.19c6.37-.09,8.72,27,9.44,31.28s12.11.79,15.53,1.73,26,24.35,34.61,20.27,37.69-38.91,41.45-55.31-16.25-68.29-34.82-84.09S1954.12,1140.88,1956.2,1190.45Z"/><path class="cls-34" d="M2039,1249.32s1.32,2.27,3.31,5.82c1.47,2.61,3.29,5.9,5.21,9.5,5.2,9.73,11.1,21.62,12.42,27.68,2.47,11.34,28.28-52.26,28.28-52.26a559.38,559.38,0,0,1-33.51-71.72C2039.84,1129.13,2039,1249.32,2039,1249.32Z"/><path class="cls-40" d="M1956.68,1196.46s-25.64-16-14.54-46,68.57-23.59,73.7-25.11,31-14.83,45.24,37,9.67,44.49,9.67,44.49-17.23-18-26.36-15.1c-9.9,3.2-25.44,9.86-25.44,9.86s-4.48-24.55-18-20.31S1966,1184.87,1956.68,1196.46Z"/><path class="cls-34" d="M2024.62,1182.58c-.61-3.37-4.34-17.19,10-16.34s11.21,33,9.62,34.32S2029.76,1211,2024.62,1182.58Z"/><path class="cls-41" d="M2042.27,1255.14c1.47,2.61,3.29,5.9,5.21,9.5,9.93-17.78,15.65-37,17.29-42.91C2061.22,1232,2042.27,1255.14,2042.27,1255.14Z"/><path class="cls-42" d="M2032.7,1259.08s.18-9.42.58-12.31-5.73-.94-6.86,2.42S2032.7,1259.08,2032.7,1259.08Z"/><path class="cls-43" d="M1987.63,1253.93s-1,4.12-.51,6.13c0,0,1.11,3.59,1.75,6.19a17.64,17.64,0,0,1,.4,2c.22,2,.09,6.45,2,11.1s11.31,24.87,11.31,24.87l13.3-3.93,10.46-3.54s8.23-31.93,7-36.46a11.12,11.12,0,0,0-.42-1.27c-1.42-3.74-4-5.92-5-7.8-.36-.69-4.39-7.28-6.67-7.61-3.17-.45-5.56.52-7,2.16,0,0-6.25-.63-9.77,1.72,0,0-5.75-.77-9.29,3.4C1995.13,1250.92,1989.21,1250.8,1987.63,1253.93Z"/><path class="cls-44" d="M2085.32,1234.89s-16.26,37.9-30.15,50.75l6.55,22.55,31.73-69Z"/><path class="cls-45" d="M2091,1481.83s2-5.42,3.56-10.74,43.22,16.63,43.22,16.63l-10,11.6Z"/><path class="cls-46" d="M2066.71,1353.54c4,8.14,7.75,16.4,11.35,24.71h0c7.92,18.29,15,36.89,21.17,55.08q3.32,9.73,6.33,19.29c23.94,75.77,33.46,140,33.46,140s89.51-23.82,102.88-35.62c0,0-21.82-317-148.45-317.8h0C2092.66,1240.42,2045.84,1310.84,2066.71,1353.54Z"/><path class="cls-47" d="M2099.23,1433.34q3.32,9.73,6.33,19.29c19.71-31.18,54.46-106.13,55-107.3Z"/><path class="cls-46" d="M2030.91,1291.41l-34,11.27,31.33,165a19.67,19.67,0,0,0,33.89,8.8c29.25-32.79,75.61-87.49,95.89-126.11,30.76-58.6-20.58-79-32.9-64.23s-66.71,114.3-66.71,114.3Z"/><path class="cls-48" d="M2288.33,1211.7l-52.59,154.24a14.17,14.17,0,0,0-.72,3.63l-12.61,202.82-219.91,4.9-64.07,233.25a24.49,24.49,0,0,0,3.54,20.64c2.79,4,6.78,7.45,12.35,8.13,13.94,1.71,296.25,0,296.25,0v-11.66a10.63,10.63,0,0,0-10.74-10.53H1975.9a14.3,14.3,0,0,1-11.21-5.26,9.26,9.26,0,0,1-2.24-7.22c1.16-7.43,57.51-197.48,57.51-197.48l212.63-3.77a18.12,18.12,0,0,0,17.95-17.18l9.24-218.22a17.3,17.3,0,0,1,.67-4.1l43-147.46s4.5-10.28-3.78-11.27S2289.25,1209,2288.33,1211.7Z"/><path class="cls-33" d="M1887.32,1437v8H1505.81v-8c0-7.46,5-13.51,11.2-13.51h359.1C1882.3,1423.49,1887.32,1429.54,1887.32,1437Z"/><path class="cls-49" d="M1527.43,1816.82h104a11.32,11.32,0,0,1,11.32,11.32v7.12a0,0,0,0,1,0,0H1527.43a0,0,0,0,1,0,0v-18.44A0,0,0,0,1,1527.43,1816.82Z"/><rect class="cls-49" x="1534.75" y="1445" width="15.24" height="390.26"/><rect class="cls-49" x="1565.36" y="1445" width="15.24" height="390.26"/><rect class="cls-50" x="1679.75" y="1127.41" width="12.2" height="270.37"/><path class="cls-51" d="M1666.73,1423.49h-67.09v-4.06h67.09c3.5,0,6-.83,7.48-2.47a6.55,6.55,0,0,0,1.49-4.67v-86.94h4.06V1412a10.61,10.61,0,0,1-2.46,7.66C1675,1422.19,1671.47,1423.49,1666.73,1423.49Z"/><path class="cls-50" d="M1687.34,1416.37h69a6.54,6.54,0,0,1,6.54,6.54v.58a0,0,0,0,1,0,0h-75.52a0,0,0,0,1,0,0v-7.12A0,0,0,0,1,1687.34,1416.37Z"/><path class="cls-52" d="M1725.44,1445H1505.81v-8c0-7.46,5.16-13.51,11.53-13.51h173.71Z"/><path class="cls-53" d="M1528,1345.71s21.06,3.15,51.79,19.47S1555.75,1370.1,1528,1345.71Z"/><path class="cls-54" d="M1584,1367.56s-15.29-29.14-39-42.44c0,0,6.9,20.22,32,41.93S1584,1367.56,1584,1367.56Z"/><path class="cls-55" d="M1596.18,1347.63s15.79-19.29,22.1-28.06-13.25,41-14.86,46.28S1595.13,1375.68,1596.18,1347.63Z"/><path class="cls-56" d="M1581.11,1377.43c-7-10.52-11.93-57.86-11.93-57.86,12.28,10.17,23.85,55.9,23.85,55.9S1588.12,1388,1581.11,1377.43Z"/><path class="cls-57" d="M1582.69,1372.66c-2.1-4.47.71-62.51,2.38-57.25s11.23,27,11.23,27C1597.73,1355.6,1584.8,1377.13,1582.69,1372.66Z"/><path class="cls-58" d="M1598.85,1359.8c3.72-6.76,40.47-43,40.47-43-.35,11.22-23.15,37.87-23.15,37.87S1595.13,1366.56,1598.85,1359.8Z"/><path class="cls-54" d="M1581.11,1376.67c42.43-15.64,82.41-7.51,82.41-7.51-5.85,8-61.37,7.51-61.37,7.51Z"/><path class="cls-59" d="M1590,1378c21.57-23.48,72.4-34.8,72.4-34.8-15,15.34-36.58,28.79-36.58,28.79S1568.44,1401.53,1590,1378Z"/><path class="cls-60" d="M1585.67,1375.47c12.62-23.35,60.68-46.43,60.68-46.43,0,7.36-38.94,41.62-38.94,41.62S1573,1398.83,1585.67,1375.47Z"/><path class="cls-61" d="M1586,1377.79c-9.46-1.74-44.54-36.12-44.54-36.12,9.11,1.75,44.54,24.18,44.54,24.18S1595.47,1379.52,1586,1377.79Z"/><path class="cls-62" d="M1569.18,1377.94c-11.92.5-50.15-23.3-50.15-23.3,11.44,0,37.69,6.93,50.53,10.52a18.94,18.94,0,0,1,11.41,8.95C1587.83,1386.23,1579.57,1377.5,1569.18,1377.94Z"/><path class="cls-63" d="M1525,1367.6c3.56-.28,26.5.74,36.36,1.2A17.48,17.48,0,0,1,1572,1373c4.25,3.67,3,6.42-2.78,7.6C1561.47,1382.14,1520.44,1368,1525,1367.6Z"/><path class="cls-46" d="M1587,1373.82a30.54,30.54,0,0,1-.49-11c1.67-12.49,7.48-51.16,16-57,0,0,3.84,50.12-4.21,67C1592.25,1385.41,1588.64,1380.73,1587,1373.82Z"/><path class="cls-64" d="M1587.07,1380.69c-4.83-4.59-24.47-49.19-24.47-49.19,18.39,10.76,26.58,32.58,26.58,32.58S1591.9,1385.28,1587.07,1380.69Z"/><polygon class="cls-65" points="1632.35 1384.08 1626.29 1423.49 1554.73 1423.49 1548.67 1384.08 1632.35 1384.08"/><path class="cls-66" d="M1548.67,1384.08h83.68l-6.06,39.41h-15s-12.87-25.24-60.82-28Z"/><rect class="cls-65" x="1545.34" y="1375.59" width="90.33" height="13.17" transform="translate(3181.02 2764.35) rotate(180)"/><g class="cls-67"><path class="cls-68" d="M1818.52,878.63a59.83,59.83,0,0,0-68.9-59.55,77.7,77.7,0,0,0-149.61-4.3c-1.16,0-2.32-.09-3.48-.09a83.39,83.39,0,0,0-14.44,165.52,31.86,31.86,0,0,0,48.81,20.67,83.37,83.37,0,0,0,139.13-62c0-.39,0-.77,0-1.16A60.25,60.25,0,0,0,1818.52,878.63Z"/></g><g class="cls-69"><path class="cls-70" d="M1859.34,1031.8A40.8,40.8,0,1,1,1818.55,991,40.79,40.79,0,0,1,1859.34,1031.8Z"/></g><g class="cls-71"><circle class="cls-72" cx="1890.45" cy="1110.75" r="19.97"/></g><path class="cls-73" d="M1646,911.75a37.83,37.83,0,0,1,2.63-14.46q2.63-6.4,10.85-11.17,2.46-1.49,6.08-3.37a49.71,49.71,0,0,0,7.06-4.52,25.81,25.81,0,0,0,5.83-6.16,14.22,14.22,0,0,0,2.39-8.14,13.4,13.4,0,0,0-1.32-6.08,13.76,13.76,0,0,0-3.45-4.43,14.1,14.1,0,0,0-5-2.71,19.13,19.13,0,0,0-5.83-.91,17,17,0,0,0-6.58,1.23,22.78,22.78,0,0,0-5.34,3.13,26.53,26.53,0,0,0-4.27,4.27,48.17,48.17,0,0,0-3.2,4.52l-14.29-9.86a31.9,31.9,0,0,1,5.66-9,34.68,34.68,0,0,1,8-6.65,37.66,37.66,0,0,1,9.78-4.11,42.15,42.15,0,0,1,10.85-1.4,43.18,43.18,0,0,1,12.32,1.81,31.42,31.42,0,0,1,10.93,5.75,30,30,0,0,1,7.88,10.11,32.85,32.85,0,0,1,3,14.7,31.75,31.75,0,0,1-1.23,9.28,25.85,25.85,0,0,1-3.53,7.32,31.28,31.28,0,0,1-5.42,5.91,62.54,62.54,0,0,1-7.07,5.1q-3.28,2-6.57,3.78a38.74,38.74,0,0,0-6,4,19.64,19.64,0,0,0-4.44,5.09,13.37,13.37,0,0,0-1.72,7Zm.33,38.28V927.36h18.24V950Z"/><polygon class="cls-74" points="851.4 620.51 982.05 547.44 937.14 544.48 851.4 620.51"/><polygon class="cls-75" points="851.4 620.51 891.6 555.84 925.34 554.95 851.4 620.51"/><polygon class="cls-76" points="952 564.24 954.62 580.71 851.4 620.51 952 564.24"/><rect class="cls-77" x="962.51" y="555.24" width="498.64" height="579.14" rx="35.63"/><rect class="cls-78" x="973.79" y="398.04" width="361.6" height="137.14" rx="20.15"/><path class="cls-73" d="M1265.22,795.46a127.43,127.43,0,1,0-240,85.82q1.44,4.05,3.14,7.94a127.43,127.43,0,0,0,236.83-93.76Zm-87.81,132.87a95.45,95.45,0,0,1-119.78-51.84c-.84-1.94-1.63-3.93-2.35-6a95.54,95.54,0,1,1,122.13,57.79Z"/><path class="cls-79" d="M1054,809.89l-30.44-9.51A127.61,127.61,0,0,1,1141.42,711l1,31.88a95.71,95.71,0,0,0-88.35,67Z"/><path class="cls-80" d="M1057.63,876.49l-29.24,12.73q-1.7-3.88-3.14-7.94a126.9,126.9,0,0,1-1.66-80.9l30.44,9.51a95.08,95.08,0,0,0,1.25,60.65C1056,872.56,1056.79,874.55,1057.63,876.49Z"/><path class="cls-28" d="M1048.14,920.94a126.7,126.7,0,0,1-19.75-31.72l29.24-12.73a94.72,94.72,0,0,0,14.81,23.79Z"/><path class="cls-73" d="M1375.71,873.3a52.71,52.71,0,1,0-45.09,95.29q1.61.76,3.24,1.41a52.71,52.71,0,0,0,41.85-96.7Zm13.17,64.55a39.46,39.46,0,0,1-50.19,19.87c-.81-.32-1.63-.67-2.43-1.05a39.52,39.52,0,1,1,52.62-18.82Z"/><path class="cls-79" d="M1318.16,939.29l-11.69,6.13a52.78,52.78,0,0,1,8.31-60.63l9.61,9.05a39.56,39.56,0,0,0-6.23,45.45Z"/><path class="cls-80" d="M1338.69,957.72,1333.86,970q-1.63-.64-3.24-1.41a52.52,52.52,0,0,1-24.15-23.17l11.69-6.13a39.35,39.35,0,0,0,18.1,17.38C1337.06,957.05,1337.88,957.4,1338.69,957.72Z"/><path class="cls-73" d="M1400.81,783a52.71,52.71,0,1,0-95.29-45.09c-.51,1.07-1,2.16-1.41,3.24a52.71,52.71,0,0,0,96.7,41.85Zm-64.55,13.18a39.47,39.47,0,0,1-19.87-50.2q.48-1.22,1-2.43a39.52,39.52,0,1,1,18.82,52.63Z"/><path class="cls-29" d="M1334.82,725.42l-6.13-11.68a52.75,52.75,0,0,1,60.62,8.31l-9,9.6a39.56,39.56,0,0,0-45.45-6.23Z"/><path class="cls-80" d="M1316.39,746l-12.28-4.83c.43-1.08.9-2.17,1.41-3.24a52.4,52.4,0,0,1,23.17-24.14l6.13,11.68a39.39,39.39,0,0,0-17.38,18.1Q1316.87,744.74,1316.39,746Z"/><path class="cls-28" d="M1300.61,756.18a52.71,52.71,0,0,1,3.5-15.06l12.28,4.83a39.49,39.49,0,0,0-2.63,11.29Z"/><polygon class="cls-73" points="1336.97 1008.24 1238.54 1008.24 1238.54 1006.28 1335.01 1006.28 1335.01 969.1 1336.97 969.1 1336.97 1008.24"/><polygon class="cls-73" points="1151.61 1008.24 1023.59 1008.24 1023.59 1006.28 1149.65 1006.28 1149.65 945.41 1151.61 945.41 1151.61 1008.24"/><rect class="cls-81" x="1023.59" y="985.92" width="88.09" height="11.74"/><rect class="cls-82" x="1238.54" y="985.92" width="51.81" height="11.74"/><path class="cls-28" d="M1256.68,510.66a42.06,42.06,0,1,1,42.06-42.05A42.09,42.09,0,0,1,1256.68,510.66Zm0-83.11a41.06,41.06,0,1,0,41.06,41.06A41.1,41.1,0,0,0,1256.68,427.55Z"/><rect class="cls-83" x="1054.38" y="434.46" width="126.25" height="11.1"/><rect class="cls-84" x="1073" y="463.06" width="107.62" height="11.1"/><rect class="cls-85" x="1007.57" y="491.65" width="173.06" height="11.1"/><rect class="cls-29" x="1003.63" y="604.96" width="42.16" height="9.01"/><rect class="cls-73" x="1179.39" y="638.88" width="65.41" height="9.01"/><rect class="cls-73" x="1094.81" y="638.88" width="39.93" height="9.01"/><rect class="cls-73" x="1003.63" y="638.88" width="79.11" height="9.01"/><rect class="cls-29" x="1058.63" y="604.96" width="62.47" height="9.01"/><rect class="cls-73" x="1147.24" y="638.88" width="17.16" height="9.01"/><rect class="cls-73" x="1198.13" y="605.46" width="46.66" height="9.01"/><rect class="cls-73" x="1261.44" y="638.88" width="39.79" height="9.01"/><rect class="cls-73" x="1136.45" y="605.46" width="49.47" height="9.01"/><path class="cls-73" d="M991,527.61l-2.86-4.22s3-2,8.75-5.47l2.62,4.37C994,525.59,991,527.59,991,527.61Z"/><path class="cls-73" d="M1483.26,914.11a120.06,120.06,0,0,1-2.3-20.51l5.1-.17a114,114,0,0,0,2.19,19.63Zm3.09-40.67-5.09-.28c.35-6.23.91-12.87,1.7-20.28l5.06.53C1487.25,860.75,1486.7,867.3,1486.35,873.44Zm4.11-40-5-.67c.87-6.53,1.83-13.23,2.84-20.06l5,.74C1492.29,820.22,1491.33,826.89,1490.46,833.4Zm5.81-40-5-.76c1-6.57,2-13.24,3-20l5,.72C1498.26,780.14,1497.26,786.82,1496.27,793.41Zm5.72-40.1-5.06-.66c.87-6.64,1.69-13.33,2.42-20l5.07.55C1503.68,739.91,1502.86,746.64,1502,753.31Zm4.37-40.36-5.08-.41c.57-6.89,1-13.65,1.3-20.09l5.09.23C1507.37,699.19,1506.93,706,1506.36,713Zm1.82-40.6h-5.1v-.81c0-6.6-.16-13.08-.48-19.27l5.09-.26c.32,6.27.49,12.84.49,19.53Zm-7.26-40c-.81-6.81-1.86-13.46-3.12-19.77l5-1c1.29,6.44,2.36,13.23,3.17,20.17ZM1493,593.15a181.67,181.67,0,0,0-6.7-18.75l4.69-2a188.12,188.12,0,0,1,6.9,19.28Zm-15.5-36.59a153.8,153.8,0,0,0-11-16.57l4-3.09A156.77,156.77,0,0,1,1481.93,554Zm-24-31.54a159.47,159.47,0,0,0-14.89-13.17l3.14-4a164.19,164.19,0,0,1,15.37,13.6ZM1017,512.46l-2.39-4.5c5.84-3.09,12-6.16,18.19-9.12l2.19,4.6C1028.8,506.37,1022.74,509.41,1017,512.46Zm405.26-11.89a196,196,0,0,0-17.56-9.45l2.19-4.6a201,201,0,0,1,18,9.7Zm-368.93-5.4-2-4.69c6.19-2.65,12.54-5.21,18.84-7.62l1.82,4.76C1065.71,490,1059.43,492.54,1053.3,495.17Zm333-11.89c-6.24-2.44-12.59-4.74-18.9-6.85l1.62-4.83c6.38,2.13,12.81,4.46,19.13,6.93Zm-295.34-2.46-1.64-4.83c6.41-2.16,12.94-4.21,19.39-6.11l1.43,4.89C1103.7,476.65,1097.25,478.68,1090.91,480.82Zm257.23-10.29c-6.43-1.79-13-3.45-19.48-4.92l1.13-5c6.57,1.49,13.21,3.16,19.73,5Zm-218.63-1-1.23-4.94c6.59-1.64,13.25-3.16,19.82-4.51l1,5C1142.63,466.37,1136,467.88,1129.51,469.5ZM1309,461.68c-6.55-1.14-13.23-2.14-19.87-2.95l.61-5.06c6.73.83,13.5,1.83,20.13,3Zm-140.06-.27-.82-5c6.7-1.08,13.48-2,20.14-2.79l.59,5.06C1182.24,459.41,1175.54,460.34,1168.91,461.41Zm100.18-4.63c-6.64-.48-13.39-.81-20.07-1l.12-5.09c6.76.16,13.6.49,20.32,1Zm-60.25,0-.36-5.09c6.76-.48,13.59-.8,20.32-1l.12,5.09C1222.27,456,1215.52,456.29,1208.84,456.77Z"/><path class="cls-73" d="M1497.88,942.28a40,40,0,0,1-7-8.29l4.3-2.74a35.05,35.05,0,0,0,6.08,7.24Z"/><path class="cls-34" d="M1121.06,1207.87s12.61-.18,17.1-5,12.42-9.21,15-10.45c3.4-1.65,12.81-10.8,14-6.33s-15,15.79-18,18.85,13.42,4.39,15.84,7.36-6,34.2-17,31.78-20-13.51-22.08-13.49-8.13-1.39-8.13-1.39Z"/><path class="cls-34" d="M1162.56,1211s32.83,10,34.18,12.86.44,4.92-2.69,4.14-32.13-8.6-32.13-8.6,35.87,19.61,37.48,21.57c.95,1.15-.63,5.26-2.36,5s-38.67-17.18-38.67-17.18,33.46,18.39,34.29,20.57c.73,1.91-1.51,5.43-4.11,4.28s-34.83-16.06-34.83-16.06,23.3,15.27,22.94,17.78c-.22,1.54-1.44,5.12-7.31,1s-20.91-12.19-20.91-12.19Z"/><path class="cls-86" d="M1052,1761.58s10.53,15.75,25.3,19.15,29.32,8.82,29.43,18.14-42.71,14.88-59.61,5.48c-25.23-14-27.79-9.79-30.59-16.8s3.36-25.76,3.18-28C1019.51,1756.81,1052,1761.58,1052,1761.58Z"/><path class="cls-87" d="M1050.38,1753.8s1.92,7.62,1.64,7.78-33.29,4.09-32.29-2c.81-5,2-10.33,2-10.33Z"/><path class="cls-86" d="M844.81,1760.53s7.51,15.07,20.34,20.2c13.72,5.49,24.72,11.8,24.47,20.88s-33.54,18.28-57.75.85c-15.3-11-20.15-11.06-22.6-18s4.26-25,4.17-27.13C813.33,1754.64,844.81,1760.53,844.81,1760.53Z"/><path class="cls-87" d="M845.18,1752.71s-.09,7.68-.37,7.82-32.18,2.77-31.37-3.2a49,49,0,0,1,3.09-10.48Z"/><path class="cls-88" d="M962.12,1292.37S1004,1452.85,1020,1490c14.77,34.37,19.65,82.44,21.68,106.59,2.56,30.36,17.79,148.62,19.59,157.5S1012,1759,1012,1759s-35.21-204.47-49.83-234.31c-9.76-19.91-66.36-162.71-72.84-154.48s-14.51,151.3-19.31,175-19.52,211.41-19.52,211.41-32.93,4.86-41.72-2.58c0,0-4-160.24-1-204.77,1.17-17-19.88-203.47,7.11-278.56C829.15,1231,962.12,1292.37,962.12,1292.37Z"/><path class="cls-89" d="M728.8,1177.29c0,1.84,3.46,9.18,9,19.74,8.09-16.18,14.44-29.47,16.52-34.36,6.82-16.1,41.95-53,41.95-53a.45.45,0,0,0,0,.08v0a.07.07,0,0,1,0,0,.83.83,0,0,1,0,.15c0,.09.06.19.09.31a1.17,1.17,0,0,1,.05.2.66.66,0,0,1,0,.15c1.92,7.12,13.66,51.67,14.09,73.6.48,23.89,6.71,68.08,6.71,68.08h0l7.33,1,16.23,2.29,2,.27,4.72.66,43,6.06,15.27,2.15,2.06.29,8.73,1.23,24.09,3.38,6.15.87H947l4.6.64,6.37.9h0c.18-.23,6.19-8.47,5.27-26.76-.59-11.8-2-34-1.43-54.57,0-.1,0-.21,0-.31,0-.27,0-.52,0-.78a1.27,1.27,0,0,0,0-.27v0c.37-11.31,1.37-22,3.48-30.17a125,125,0,0,0,3-16.08c0-.25.06-.5.1-.75.1-.95.21-1.89.29-2.81a141.92,141.92,0,0,0,.23-25.78l0,0c.44,1,3.58,12.47,7.7,26.68,7,24,16.7,55.78,20.85,57.3,6,2.22,103.83,31.18,125,34.15,2.44.34,3.86.34,4-.09s.2-.63.3-1c2.56-8.46,6.09-22.83,6.65-25.15a3.34,3.34,0,0,0,.08-.33l-3.78-1.13-106.4-31.89-48.64-140.26c-1-.82-13-6.6-21.69-10.75-8.9-4.23-19.62-10.45-29.34-15.78-5-2.71-9.64-5.18-13.69-7l-.62-.28h0l-11.15-5.09h0l-2.91-.28c-9.34-.88-38.38-3.61-48.1-4.17-.81-.06-1.48-.09-2-.1s-.77,0-1,0c-1.23.07-7.21,2.16-15.08,5.15h0l-.9.35-1.12.42-2.07.8-4.33,1.69-1.53.61c-15.74,6.24-33.77,14-38.06,17-2.83,2-11.64,18.65-21.87,39.21-13.17,42.17-29.85,106.74-30.37,122.66C728.8,1176.82,728.8,1177.06,728.8,1177.29Z"/><path class="cls-90" d="M957.94,1272.09s3.24,3.87,4.18,20.28c0,0-133.16-15.54-147.23-21.66,0,0-.55-18.07,2.43-18.39C820.6,1252,957.94,1272.09,957.94,1272.09Z"/><path class="cls-34" d="M844.39,984.12c.42,20.9,40.88,32.33,40.88,32.33s16.92-21.22,12.88-23.25c-1.59-.8-2.23-4-2.43-7.52a73.74,73.74,0,0,1,.23-9.48c.12-1.47.23-2.42.23-2.42s-5.78-6.1-13.13-13.37c-12.85-12.71-30.52-29-30.55-22.51a6.18,6.18,0,0,0,.15,1.23C855.76,953.7,844.39,984.12,844.39,984.12Z"/><path class="cls-86" d="M847.75,1255.53s-2.91,18.32-3.16,23.1l-6.16-1.23s1.7-19.39,2.7-22.64Z"/><path class="cls-86" d="M946.83,1270s2.34,16.66,2.39,23l-6.51-.84s-1.34-20.81-2.08-23Z"/><path class="cls-41" d="M860,953.5h0c.08.13,1.79,2.69,4.72,6.38,6.21,7.81,17.89,20.65,31,25.8a73.74,73.74,0,0,1,.23-9.48,21.11,21.11,0,0,0,4-.48,124,124,0,0,0-8.8-12.88l-8.12-2.43Z"/><path class="cls-34" d="M852.21,938.18c3.5,7.62,6.82,13.13,7.77,15.32h0a26.83,26.83,0,0,0,4.72,6.38c6.67,7.18,19.07,16.66,31.25,16.32a21.11,21.11,0,0,0,4-.48c4.92-1.07,10.73-3.36,13.92-9.62,25.25-49.42,7-89.83,7-89.83s-69-19.52-79.82,1.26C833.46,892.1,844,920.29,852.21,938.18Z"/><path class="cls-91" d="M920.86,876.27s6.41-.36,8-12.51-1.61-15.34-1.61-15.34S898.76,836.5,888.53,835s-35.39-3.05-41.29,3.7c0,0-14.33-3.33-18.24,20.46-6.19,37.74,21.11,74.38,21.11,74.38s-.23-24.65,5.2-27.92,10.13,4.5,10.13,4.5l11.13,2s-16.9-36.47,3.37-37.82S909.26,878.38,920.86,876.27Z"/><path class="cls-34" d="M865.14,900.24c-1.06-10.86-20.7-15-19.39-3.62s11,22.32,15.46,21.94S865.94,908.52,865.14,900.24Z"/><path class="cls-92" d="M737.8,1197c8.55,16.32,22.05,40.34,35.38,63.63-1.75,3.27-3.47,6.52-5.11,9.73A193.29,193.29,0,0,0,758,1292.9c-3,8.51-7.26,30.31.82,34.36l42.6,23.51s.29-.83.86-2.37c1.41-3.82,4.47-12,8.7-22.61l1.2-2.84,3.46-8.11,2-4.58c.77-1.8,1.57-3.67,2.37-5.52,1.16-2.7,2.31-5.39,3.38-7.87,2.9-6.77,5.17-12,5.17-12,.15-.32.29-.62.43-.94,1.39-3,2.81-6,4.26-9,2.24-4.65,4.54-9.27,6.9-13.79l.71-1.38c.42-.79.84-1.59,1.27-2.38l.78-1.44.18-.32.31-.57c12.32-22.46,26.19-41.25,30.61-68.79.43-2.66.83-5.3,1.22-7.92q1-6.57,1.77-12.92c.2-1.61.4-3.19.59-4.76,2.22-18.37,3.54-34.75,4.61-46.15,3.33-35.54-18.43-74-35.14-97.77a261.67,261.67,0,0,0-17.87-22.83l-.08-.09-.9.35-1.12.42-2.07.8-4.33,1.69-1.53.61c-16.18,6.34-50.25,15.71-54.54,18.79-2.47,1.77-8,18-14.4,38.46-13.17,42.18-21,105.78-21.36,121.66,0,.25,0,.49,0,.72C728.8,1179.13,732.26,1186.47,737.8,1197Zm64.72-7.94c0,7.93-2.58,17-6.54,26.67l-.3.73c-2.73-5.83-5.31-11.41-7.61-16.57a0,0,0,0,1,0,0c-6.34-14.19-10.69-25.26-10.93-29.63-1.57-28.14,19.15-60.52,19.15-60.52v0a.07.07,0,0,1,0,0,.83.83,0,0,1,0,.15,1.58,1.58,0,0,1,.09.31,1.17,1.17,0,0,1,.05.2.66.66,0,0,1,0,.15C800.77,1127.36,802.52,1189.09,802.52,1189.09Z"/><path class="cls-93" d="M883.42,1295.1l-121.41,54a13.61,13.61,0,0,1-18-6.9l-33.24-74.68a13.62,13.62,0,0,1,6.9-18l121.42-54a13.61,13.61,0,0,1,18,6.9l33.24,74.67A13.63,13.63,0,0,1,883.42,1295.1Z"/><path class="cls-92" d="M909.61,998.82s5.69,19,13,66.27c0,0,0,0,0,0q.38,2.39.75,4.86c0,.19.06.39.09.58.16,1.09.33,2.2.49,3.32,0,.14,0,.27.07.4l.33,2.28c.28,1.87.55,3.78.83,5.72,3.29,23,7.9,62.22,12.33,101.79v0c3.5,31.19,11.47,63.19,14,87.08v0a165.72,165.72,0,0,0,3.32,18c.18.8.37,1.6.56,2.42,7.14,30.14,21,72.82,21,72.82l4-3.73,11.95-11a9.7,9.7,0,0,0,2.69-10c-6.63-21.38-29.15-97-33.28-150.24v0c2-18.7,7.2-43.78,6.42-47.39l.15.39c2.37,6.6,5,13.77,7.64,20.75h0c7.11,18.74,14.39,36.11,17.42,37.22,6.73,2.48,127.79,38.2,128.67,33.21.09-.5.19-1,.31-1.6s.23-1.14.36-1.75c1.49-6.82,4.21-16.6,6.1-23.21.28-1,.55-1.88.78-2.7.8-2.74,1.32-4.47,1.32-4.47l-102.38-33.6L977,1031.13c-1-.8-14.2-7.9-22.93-12.05-9.08-4.33-20.58-9.66-30.78-14.37l-13.34-6.14Z"/><path class="cls-94" d="M840.29,1045.65l19.69,11.1-8.41,8.58L874,1186.23c4.56-28.34,6.64-55.25,8.19-71.75,5.15-54.93-49.68-116.9-53.09-120.69-2.63,1-5.48,2.1-8.42,3.26Z"/><path class="cls-94" d="M909.3,998.29s7.36,24,15.93,84c3.28,23,7.9,62.24,12.33,101.8l4.58-113.23-9.38-10.16,8.34-10.42-17.84-45.54-13.34-6.14Z"/><path class="cls-95" d="M828,994.21l16.43-10.09s.46,9,40.88,32.33l-11.48,32.33Z"/><path class="cls-95" d="M896,988.63s-.64,9.66-10.75,27.82l22.4,29.2,1.63-47.36Z"/><path class="cls-96" d="M885.21,1016.45s-4.34,17.36-2.78,22.23c0,0,9.54,3.47,16.41-.87C898.84,1037.81,894,1025.65,885.21,1016.45Z"/><path class="cls-97" d="M907.65,1266.9c2.43-12.25.12-49,0-50.53l-2.08.14c0,.38,2.39,38,0,50Z"/><path class="cls-98" d="M890.65,1261.25s19.59,2.34,26.07,4l-.85,22-25.65-2.73Z"/><path class="cls-96" d="M894.94,1036.25s21.85,55.18,18.29,116.94c-3.7,64-9.76,87.27-9.76,87.27L890,1257.35l-6-20.77s18.08-81.64,6.41-161.09c-2.11-14.4-5.25-41.68-5.25-41.68Z"/><path class="cls-34" d="M829.28,1296.85s4.69,9.38,9.38,10.94,11.52,9.18,11.52,9.18l-33,17.39s-8.79-17.19-9.18-28.13S829.28,1296.85,829.28,1296.85Z"/><path class="cls-89" d="M832.41,1297.73l2.19,4.39s-21,15.34-26.62,16.32l-1.94-5.86Z"/><path class="cls-92" d="M834.6,1297.92s-15.72,13-29,19l-59.33-104,37.87-20.7S833.56,1290.11,834.6,1297.92Z"/><path class="cls-88" d="M967.63,1114c.73,14.82.62,28,.62,28h0c0,.07,0,.48,0,1.14,0-.25.06-.5.1-.75,2.37,6.6,5,13.77,7.64,20.75a221.21,221.21,0,0,0,.6-22.61c-1.06-41.55-14.13-63.34-14.13-63.34C965.5,1084.4,966.94,1099.94,967.63,1114Z"/></g></g></g></svg>